%
M48
M72
T01C0.0118
T02C0.0197
T03C0.0236
T04C0.0320
T05C0.0360
T06C0.0400
T07C0.0709
T08C0.0787
T09C0.0945
T10C0.1252
%
T01
X8893Y2119
X8893Y2473
X9798Y2748
T02
X11452Y1331
X12239Y1331
X13027Y1331
X13814Y1331
X14601Y1331
X15389Y1331
X16176Y1331
X16964Y1331
X17751Y1331
X18538Y1528
X19326Y1528
X20113Y1528
X20901Y1528
X21688Y1528
X22475Y1528
X24050Y937
X26412Y3300
X28775Y5662
X31137Y8024
X33499Y10386
X35467Y8024
X33499Y5662
X35467Y3300
X31137Y3300
X28775Y937
X24050Y4874
X23656Y4874
X23263Y4874
X23420Y5583
X23893Y5583
X23893Y6134
X23656Y6843
X23263Y6843
X23263Y7237
X23656Y7237
X23420Y6134
X20113Y6449
X20113Y4874
X16491Y4796
X16491Y5189
X16491Y5583
X16491Y6607
X16491Y7000
X16491Y7394
X15152Y7119
X14680Y7119
X13853Y5937
X12436Y5898
X10231Y6961
X9601Y8221
X10704Y8378
X11806Y8496
X12436Y8496
X9877Y10386
X9090Y9678
X9090Y9284
X7515Y6449
X6334Y7079
X6334Y7473
X5507Y8654
X3184Y8811
X3184Y8418
X3184Y8024
X3184Y7630
X3184Y6843
X3184Y6449
X3184Y6056
X3184Y5662
X1215Y4087
X5152Y544
X5940Y544
X6727Y544
X7515Y544
X9090Y937
X10664Y544
X15231Y4796
X16964Y8811
X19326Y10977
X20113Y8811
X21688Y12748
X19326Y15111
X16964Y17473
X14601Y15111
X16964Y12748
X12239Y12748
X9877Y12748
X9877Y15111
X9877Y17473
X12239Y17473
X9877Y19835
X9877Y22197
X12239Y22197
X10271Y24874
X10940Y25859
X11530Y25465
X12318Y25465
X12712Y25859
X12712Y26843
X13105Y27433
X12712Y28024
X12712Y28811
X12515Y29205
X11924Y29599
X11334Y29402
X10940Y28811
X10940Y28221
X9916Y28457
X9050Y29559
X8656Y29874
X8499Y29048
X7397Y30111
X6924Y30150
X7200Y29087
X5861Y29205
X4759Y30819
X5152Y32040
X1215Y32040
X3578Y27709
X3578Y26213
X861Y26725
X4365Y22197
X3578Y20622
X3971Y18260
X5940Y18260
X3578Y15898
X1215Y13536
X3578Y11174
X3184Y10780
X3184Y10386
X3184Y9993
X3184Y9599
X1215Y8811
X5940Y13536
X9286Y5859
X6334Y5504
X19326Y19835
X21688Y22197
X24050Y19835
X26412Y17473
X28775Y15111
X26412Y12748
X28775Y10386
X26412Y8024
X24050Y10386
X24050Y15111
X28775Y19835
X26412Y22197
X24050Y24559
X22278Y25977
X22278Y26922
X22278Y27315
X22278Y27709
X23656Y27709
X23538Y27119
X23578Y26764
X26412Y26922
X23538Y30347
X25074Y31016
X26924Y31685
X31137Y32040
X31806Y33930
X33499Y34008
X30743Y37158
X32475Y27402
X33499Y24559
X35467Y22197
X33499Y19835
X31137Y22197
X35467Y26922
X35467Y17473
X33499Y15111
X35467Y12748
X31137Y12748
X31137Y17473
X18145Y29087
X18145Y29441
X17633Y29520
X17278Y29520
X16924Y29717
X16491Y29599
X16491Y30150
X15467Y29244
X15074Y28654
X14050Y27433
X13499Y29914
X12987Y29914
X10743Y30977
X11215Y32315
X12042Y32355
X10192Y32512
X9404Y32512
X9916Y33693
X5928Y37083
X10074Y26843
X10940Y26449
X9129Y24756
X8341Y24756
X7554Y24756
X6767Y24756
X5979Y24756
X8971Y26567
X14601Y24559
X16964Y22197
X16649Y28103
X17003Y28181
X17357Y28103
X17948Y28378
X20113Y32591
X20467Y32591
X20428Y33615
X21373Y33615
X19444Y33615
X19129Y32827
X18735Y32827
X18460Y33615
T03
X19680Y32788
X13617Y30504
X9877Y30111
T04
X11806Y28383
X11806Y26483
X9404Y17119
X8656Y17119
X7908Y17119
X7160Y17119
X6412Y17119
X1267Y22837
X1267Y23837
X1267Y24837
X2267Y24337
X2267Y23337
X2267Y25337
X1267Y28349
X1267Y29349
X1267Y30349
X2267Y30849
X2267Y29849
X2267Y28849
X22475Y8615
T05
X24523Y9441
X25310Y9441
X31137Y2630
X31137Y1843
X15940Y29914
X15152Y29914
X24050Y31882
X24838Y31882
X25625Y31882
T06
X25928Y34902
X24928Y34902
X23928Y34902
X22928Y34902
X21928Y34902
X20928Y34902
X19928Y34902
X18928Y34902
X17928Y34902
X16928Y34902
X15928Y34902
X14928Y34902
X13928Y34902
X12928Y34902
X11928Y34902
X10928Y34902
X9928Y34902
X8928Y34902
X7928Y34902
X6928Y34902
X5928Y34902
X5928Y35902
X6928Y35902
X7928Y35902
X8928Y35902
X9928Y35902
X10928Y35902
X11928Y35902
X12928Y35902
X13928Y35902
X14928Y35902
X15928Y35902
X16928Y35902
X17928Y35902
X18928Y35902
X19928Y35902
X20928Y35902
X21928Y35902
X22928Y35902
X23928Y35902
X24928Y35902
X25928Y35902
X26928Y35902
X26928Y34902
X27928Y34902
X27928Y35902
X28928Y35902
X29928Y35902
X29928Y34902
X28928Y34902
X30928Y34902
X30928Y35902
X30928Y33902
X34680Y31571
X34680Y30571
X34680Y29571
X34680Y28571
X23696Y2748
X1649Y16252
X1609Y18260
X1609Y20229
T07
X2003Y21922
X2003Y27433
T08
X15074Y20032
X21176Y17276
X15074Y9796
X29050Y12945
X35152Y9796
X35152Y20032
T09
X33381Y26331
X16845Y26331
T10
X2428Y2150
X33928Y2150
X32928Y35902
X3928Y35902
M30
