G75*
G70*
%OFA0B0*%
%FSLAX24Y24*%
%IPPOS*%
%LPD*%
%AMOC8*
5,1,8,0,0,1.08239X$1,22.5*
%
%ADD10C,0.0100*%
%ADD11C,0.0020*%
%ADD12C,0.0060*%
%ADD13R,0.9449X0.9449*%
%ADD14C,0.0000*%
%ADD15C,0.0789*%
%ADD16C,0.1025*%
%ADD17C,0.0867*%
%ADD18C,0.0079*%
%ADD19R,0.0640X0.0640*%
%ADD20C,0.0640*%
%ADD21C,0.0600*%
%ADD22OC8,0.0680*%
%ADD23C,0.0680*%
%ADD24OC8,0.0710*%
%ADD25C,0.2580*%
D10*
X000428Y000150D02*
X000428Y037906D01*
X035940Y037906D01*
X035940Y000150D01*
X000428Y000150D01*
D11*
X023469Y009245D02*
X023499Y009215D01*
X023617Y009215D01*
X023646Y009245D01*
X023646Y009304D01*
X023617Y009333D01*
X023558Y009333D01*
X023558Y009274D01*
X023499Y009333D02*
X023469Y009304D01*
X023469Y009245D01*
X023469Y009396D02*
X023646Y009514D01*
X023469Y009514D01*
X023469Y009578D02*
X023469Y009666D01*
X023499Y009696D01*
X023617Y009696D01*
X023646Y009666D01*
X023646Y009578D01*
X023469Y009578D01*
X023469Y009396D02*
X023646Y009396D01*
X023335Y031499D02*
X023371Y031535D01*
X023371Y031607D01*
X023335Y031643D01*
X023263Y031643D01*
X023263Y031571D01*
X023191Y031499D02*
X023335Y031499D01*
X023191Y031499D02*
X023154Y031535D01*
X023154Y031607D01*
X023191Y031643D01*
X023154Y031716D02*
X023371Y031860D01*
X023154Y031860D01*
X023154Y031934D02*
X023154Y032042D01*
X023191Y032078D01*
X023335Y032078D01*
X023371Y032042D01*
X023371Y031934D01*
X023154Y031934D01*
X023154Y031716D02*
X023371Y031716D01*
D12*
X026324Y031961D02*
X026810Y031961D01*
X026567Y031719D02*
X026567Y032204D01*
X026105Y009690D02*
X026105Y009263D01*
X026318Y009477D02*
X025891Y009477D01*
X002800Y009432D02*
X002436Y009432D01*
X002314Y009311D01*
X002314Y008947D01*
X002800Y008947D01*
X002800Y008707D02*
X002436Y008707D01*
X002314Y008586D01*
X002314Y008343D01*
X002557Y008343D02*
X002557Y008707D01*
X002800Y008707D02*
X002800Y008343D01*
X002678Y008222D01*
X002557Y008343D01*
X002557Y007982D02*
X002557Y007618D01*
X002678Y007497D01*
X002800Y007618D01*
X002800Y007982D01*
X002436Y007982D01*
X002314Y007861D01*
X002314Y007618D01*
X002072Y007257D02*
X002072Y007014D01*
X002072Y007136D02*
X002678Y007136D01*
X002800Y007014D01*
X002800Y006893D01*
X002678Y006772D01*
X002678Y009672D02*
X002314Y009672D01*
X002678Y009672D02*
X002800Y009793D01*
X002800Y010157D01*
X002314Y010157D01*
X002436Y010397D02*
X002314Y010518D01*
X002314Y010882D01*
X002557Y010761D02*
X002557Y010518D01*
X002436Y010397D01*
X002800Y010397D02*
X002800Y010761D01*
X002678Y010882D01*
X002557Y010761D01*
X002800Y011847D02*
X002314Y012332D01*
X002193Y012332D01*
X002072Y012211D01*
X002072Y011968D01*
X002193Y011847D01*
X002800Y011847D02*
X002800Y012332D01*
X002678Y012572D02*
X002193Y012572D01*
X002072Y012693D01*
X002072Y012936D01*
X002193Y013057D01*
X002678Y012572D01*
X002800Y012693D01*
X002800Y012936D01*
X002678Y013057D01*
X002193Y013057D01*
X002314Y013297D02*
X002072Y013540D01*
X002800Y013540D01*
X002800Y013782D02*
X002800Y013297D01*
X002678Y014022D02*
X002800Y014143D01*
X002800Y014386D01*
X002678Y014507D01*
X002557Y014507D01*
X002436Y014386D01*
X002436Y014265D01*
X002436Y014386D02*
X002314Y014507D01*
X002193Y014507D01*
X002072Y014386D01*
X002072Y014143D01*
X002193Y014022D01*
D13*
X024838Y014914D03*
D14*
X020782Y017276D02*
X020784Y017315D01*
X020790Y017354D01*
X020800Y017392D01*
X020813Y017429D01*
X020830Y017464D01*
X020850Y017498D01*
X020874Y017529D01*
X020901Y017558D01*
X020930Y017584D01*
X020962Y017607D01*
X020996Y017627D01*
X021032Y017643D01*
X021069Y017655D01*
X021108Y017664D01*
X021147Y017669D01*
X021186Y017670D01*
X021225Y017667D01*
X021264Y017660D01*
X021301Y017649D01*
X021338Y017635D01*
X021373Y017617D01*
X021406Y017596D01*
X021437Y017571D01*
X021465Y017544D01*
X021490Y017514D01*
X021512Y017481D01*
X021531Y017447D01*
X021546Y017411D01*
X021558Y017373D01*
X021566Y017335D01*
X021570Y017296D01*
X021570Y017256D01*
X021566Y017217D01*
X021558Y017179D01*
X021546Y017141D01*
X021531Y017105D01*
X021512Y017071D01*
X021490Y017038D01*
X021465Y017008D01*
X021437Y016981D01*
X021406Y016956D01*
X021373Y016935D01*
X021338Y016917D01*
X021301Y016903D01*
X021264Y016892D01*
X021225Y016885D01*
X021186Y016882D01*
X021147Y016883D01*
X021108Y016888D01*
X021069Y016897D01*
X021032Y016909D01*
X020996Y016925D01*
X020962Y016945D01*
X020930Y016968D01*
X020901Y016994D01*
X020874Y017023D01*
X020850Y017054D01*
X020830Y017088D01*
X020813Y017123D01*
X020800Y017160D01*
X020790Y017198D01*
X020784Y017237D01*
X020782Y017276D01*
X014680Y020032D02*
X014682Y020071D01*
X014688Y020110D01*
X014698Y020148D01*
X014711Y020185D01*
X014728Y020220D01*
X014748Y020254D01*
X014772Y020285D01*
X014799Y020314D01*
X014828Y020340D01*
X014860Y020363D01*
X014894Y020383D01*
X014930Y020399D01*
X014967Y020411D01*
X015006Y020420D01*
X015045Y020425D01*
X015084Y020426D01*
X015123Y020423D01*
X015162Y020416D01*
X015199Y020405D01*
X015236Y020391D01*
X015271Y020373D01*
X015304Y020352D01*
X015335Y020327D01*
X015363Y020300D01*
X015388Y020270D01*
X015410Y020237D01*
X015429Y020203D01*
X015444Y020167D01*
X015456Y020129D01*
X015464Y020091D01*
X015468Y020052D01*
X015468Y020012D01*
X015464Y019973D01*
X015456Y019935D01*
X015444Y019897D01*
X015429Y019861D01*
X015410Y019827D01*
X015388Y019794D01*
X015363Y019764D01*
X015335Y019737D01*
X015304Y019712D01*
X015271Y019691D01*
X015236Y019673D01*
X015199Y019659D01*
X015162Y019648D01*
X015123Y019641D01*
X015084Y019638D01*
X015045Y019639D01*
X015006Y019644D01*
X014967Y019653D01*
X014930Y019665D01*
X014894Y019681D01*
X014860Y019701D01*
X014828Y019724D01*
X014799Y019750D01*
X014772Y019779D01*
X014748Y019810D01*
X014728Y019844D01*
X014711Y019879D01*
X014698Y019916D01*
X014688Y019954D01*
X014682Y019993D01*
X014680Y020032D01*
X016373Y026331D02*
X016375Y026374D01*
X016381Y026416D01*
X016391Y026458D01*
X016404Y026499D01*
X016421Y026539D01*
X016442Y026576D01*
X016466Y026612D01*
X016493Y026645D01*
X016523Y026676D01*
X016556Y026704D01*
X016591Y026729D01*
X016628Y026750D01*
X016667Y026768D01*
X016707Y026782D01*
X016749Y026793D01*
X016791Y026800D01*
X016834Y026803D01*
X016877Y026802D01*
X016920Y026797D01*
X016962Y026788D01*
X017003Y026776D01*
X017043Y026760D01*
X017081Y026740D01*
X017117Y026717D01*
X017151Y026690D01*
X017183Y026661D01*
X017211Y026629D01*
X017237Y026594D01*
X017259Y026558D01*
X017278Y026519D01*
X017293Y026479D01*
X017305Y026438D01*
X017313Y026395D01*
X017317Y026352D01*
X017317Y026310D01*
X017313Y026267D01*
X017305Y026224D01*
X017293Y026183D01*
X017278Y026143D01*
X017259Y026104D01*
X017237Y026068D01*
X017211Y026033D01*
X017183Y026001D01*
X017151Y025972D01*
X017117Y025945D01*
X017081Y025922D01*
X017043Y025902D01*
X017003Y025886D01*
X016962Y025874D01*
X016920Y025865D01*
X016877Y025860D01*
X016834Y025859D01*
X016791Y025862D01*
X016749Y025869D01*
X016707Y025880D01*
X016667Y025894D01*
X016628Y025912D01*
X016591Y025933D01*
X016556Y025958D01*
X016523Y025986D01*
X016493Y026017D01*
X016466Y026050D01*
X016442Y026086D01*
X016421Y026123D01*
X016404Y026163D01*
X016391Y026204D01*
X016381Y026246D01*
X016375Y026288D01*
X016373Y026331D01*
X028656Y012945D02*
X028658Y012984D01*
X028664Y013023D01*
X028674Y013061D01*
X028687Y013098D01*
X028704Y013133D01*
X028724Y013167D01*
X028748Y013198D01*
X028775Y013227D01*
X028804Y013253D01*
X028836Y013276D01*
X028870Y013296D01*
X028906Y013312D01*
X028943Y013324D01*
X028982Y013333D01*
X029021Y013338D01*
X029060Y013339D01*
X029099Y013336D01*
X029138Y013329D01*
X029175Y013318D01*
X029212Y013304D01*
X029247Y013286D01*
X029280Y013265D01*
X029311Y013240D01*
X029339Y013213D01*
X029364Y013183D01*
X029386Y013150D01*
X029405Y013116D01*
X029420Y013080D01*
X029432Y013042D01*
X029440Y013004D01*
X029444Y012965D01*
X029444Y012925D01*
X029440Y012886D01*
X029432Y012848D01*
X029420Y012810D01*
X029405Y012774D01*
X029386Y012740D01*
X029364Y012707D01*
X029339Y012677D01*
X029311Y012650D01*
X029280Y012625D01*
X029247Y012604D01*
X029212Y012586D01*
X029175Y012572D01*
X029138Y012561D01*
X029099Y012554D01*
X029060Y012551D01*
X029021Y012552D01*
X028982Y012557D01*
X028943Y012566D01*
X028906Y012578D01*
X028870Y012594D01*
X028836Y012614D01*
X028804Y012637D01*
X028775Y012663D01*
X028748Y012692D01*
X028724Y012723D01*
X028704Y012757D01*
X028687Y012792D01*
X028674Y012829D01*
X028664Y012867D01*
X028658Y012906D01*
X028656Y012945D01*
X034758Y009796D02*
X034760Y009835D01*
X034766Y009874D01*
X034776Y009912D01*
X034789Y009949D01*
X034806Y009984D01*
X034826Y010018D01*
X034850Y010049D01*
X034877Y010078D01*
X034906Y010104D01*
X034938Y010127D01*
X034972Y010147D01*
X035008Y010163D01*
X035045Y010175D01*
X035084Y010184D01*
X035123Y010189D01*
X035162Y010190D01*
X035201Y010187D01*
X035240Y010180D01*
X035277Y010169D01*
X035314Y010155D01*
X035349Y010137D01*
X035382Y010116D01*
X035413Y010091D01*
X035441Y010064D01*
X035466Y010034D01*
X035488Y010001D01*
X035507Y009967D01*
X035522Y009931D01*
X035534Y009893D01*
X035542Y009855D01*
X035546Y009816D01*
X035546Y009776D01*
X035542Y009737D01*
X035534Y009699D01*
X035522Y009661D01*
X035507Y009625D01*
X035488Y009591D01*
X035466Y009558D01*
X035441Y009528D01*
X035413Y009501D01*
X035382Y009476D01*
X035349Y009455D01*
X035314Y009437D01*
X035277Y009423D01*
X035240Y009412D01*
X035201Y009405D01*
X035162Y009402D01*
X035123Y009403D01*
X035084Y009408D01*
X035045Y009417D01*
X035008Y009429D01*
X034972Y009445D01*
X034938Y009465D01*
X034906Y009488D01*
X034877Y009514D01*
X034850Y009543D01*
X034826Y009574D01*
X034806Y009608D01*
X034789Y009643D01*
X034776Y009680D01*
X034766Y009718D01*
X034760Y009757D01*
X034758Y009796D01*
X034758Y020032D02*
X034760Y020071D01*
X034766Y020110D01*
X034776Y020148D01*
X034789Y020185D01*
X034806Y020220D01*
X034826Y020254D01*
X034850Y020285D01*
X034877Y020314D01*
X034906Y020340D01*
X034938Y020363D01*
X034972Y020383D01*
X035008Y020399D01*
X035045Y020411D01*
X035084Y020420D01*
X035123Y020425D01*
X035162Y020426D01*
X035201Y020423D01*
X035240Y020416D01*
X035277Y020405D01*
X035314Y020391D01*
X035349Y020373D01*
X035382Y020352D01*
X035413Y020327D01*
X035441Y020300D01*
X035466Y020270D01*
X035488Y020237D01*
X035507Y020203D01*
X035522Y020167D01*
X035534Y020129D01*
X035542Y020091D01*
X035546Y020052D01*
X035546Y020012D01*
X035542Y019973D01*
X035534Y019935D01*
X035522Y019897D01*
X035507Y019861D01*
X035488Y019827D01*
X035466Y019794D01*
X035441Y019764D01*
X035413Y019737D01*
X035382Y019712D01*
X035349Y019691D01*
X035314Y019673D01*
X035277Y019659D01*
X035240Y019648D01*
X035201Y019641D01*
X035162Y019638D01*
X035123Y019639D01*
X035084Y019644D01*
X035045Y019653D01*
X035008Y019665D01*
X034972Y019681D01*
X034938Y019701D01*
X034906Y019724D01*
X034877Y019750D01*
X034850Y019779D01*
X034826Y019810D01*
X034806Y019844D01*
X034789Y019879D01*
X034776Y019916D01*
X034766Y019954D01*
X034760Y019993D01*
X034758Y020032D01*
X032909Y026331D02*
X032911Y026374D01*
X032917Y026416D01*
X032927Y026458D01*
X032940Y026499D01*
X032957Y026539D01*
X032978Y026576D01*
X033002Y026612D01*
X033029Y026645D01*
X033059Y026676D01*
X033092Y026704D01*
X033127Y026729D01*
X033164Y026750D01*
X033203Y026768D01*
X033243Y026782D01*
X033285Y026793D01*
X033327Y026800D01*
X033370Y026803D01*
X033413Y026802D01*
X033456Y026797D01*
X033498Y026788D01*
X033539Y026776D01*
X033579Y026760D01*
X033617Y026740D01*
X033653Y026717D01*
X033687Y026690D01*
X033719Y026661D01*
X033747Y026629D01*
X033773Y026594D01*
X033795Y026558D01*
X033814Y026519D01*
X033829Y026479D01*
X033841Y026438D01*
X033849Y026395D01*
X033853Y026352D01*
X033853Y026310D01*
X033849Y026267D01*
X033841Y026224D01*
X033829Y026183D01*
X033814Y026143D01*
X033795Y026104D01*
X033773Y026068D01*
X033747Y026033D01*
X033719Y026001D01*
X033687Y025972D01*
X033653Y025945D01*
X033617Y025922D01*
X033579Y025902D01*
X033539Y025886D01*
X033498Y025874D01*
X033456Y025865D01*
X033413Y025860D01*
X033370Y025859D01*
X033327Y025862D01*
X033285Y025869D01*
X033243Y025880D01*
X033203Y025894D01*
X033164Y025912D01*
X033127Y025933D01*
X033092Y025958D01*
X033059Y025986D01*
X033029Y026017D01*
X033002Y026050D01*
X032978Y026086D01*
X032957Y026123D01*
X032940Y026163D01*
X032927Y026204D01*
X032917Y026246D01*
X032911Y026288D01*
X032909Y026331D01*
X014680Y009796D02*
X014682Y009835D01*
X014688Y009874D01*
X014698Y009912D01*
X014711Y009949D01*
X014728Y009984D01*
X014748Y010018D01*
X014772Y010049D01*
X014799Y010078D01*
X014828Y010104D01*
X014860Y010127D01*
X014894Y010147D01*
X014930Y010163D01*
X014967Y010175D01*
X015006Y010184D01*
X015045Y010189D01*
X015084Y010190D01*
X015123Y010187D01*
X015162Y010180D01*
X015199Y010169D01*
X015236Y010155D01*
X015271Y010137D01*
X015304Y010116D01*
X015335Y010091D01*
X015363Y010064D01*
X015388Y010034D01*
X015410Y010001D01*
X015429Y009967D01*
X015444Y009931D01*
X015456Y009893D01*
X015464Y009855D01*
X015468Y009816D01*
X015468Y009776D01*
X015464Y009737D01*
X015456Y009699D01*
X015444Y009661D01*
X015429Y009625D01*
X015410Y009591D01*
X015388Y009558D01*
X015363Y009528D01*
X015335Y009501D01*
X015304Y009476D01*
X015271Y009455D01*
X015236Y009437D01*
X015199Y009423D01*
X015162Y009412D01*
X015123Y009405D01*
X015084Y009402D01*
X015045Y009403D01*
X015006Y009408D01*
X014967Y009417D01*
X014930Y009429D01*
X014894Y009445D01*
X014860Y009465D01*
X014828Y009488D01*
X014799Y009514D01*
X014772Y009543D01*
X014748Y009574D01*
X014728Y009608D01*
X014711Y009643D01*
X014698Y009680D01*
X014688Y009718D01*
X014682Y009757D01*
X014680Y009796D01*
X001649Y021922D02*
X001651Y021959D01*
X001657Y021996D01*
X001666Y022031D01*
X001680Y022066D01*
X001696Y022099D01*
X001717Y022130D01*
X001740Y022159D01*
X001766Y022185D01*
X001795Y022208D01*
X001826Y022229D01*
X001859Y022245D01*
X001894Y022259D01*
X001929Y022268D01*
X001966Y022274D01*
X002003Y022276D01*
X002040Y022274D01*
X002077Y022268D01*
X002112Y022259D01*
X002147Y022245D01*
X002180Y022229D01*
X002211Y022208D01*
X002240Y022185D01*
X002266Y022159D01*
X002289Y022130D01*
X002310Y022099D01*
X002326Y022066D01*
X002340Y022031D01*
X002349Y021996D01*
X002355Y021959D01*
X002357Y021922D01*
X002355Y021885D01*
X002349Y021848D01*
X002340Y021813D01*
X002326Y021778D01*
X002310Y021745D01*
X002289Y021714D01*
X002266Y021685D01*
X002240Y021659D01*
X002211Y021636D01*
X002180Y021615D01*
X002147Y021599D01*
X002112Y021585D01*
X002077Y021576D01*
X002040Y021570D01*
X002003Y021568D01*
X001966Y021570D01*
X001929Y021576D01*
X001894Y021585D01*
X001859Y021599D01*
X001826Y021615D01*
X001795Y021636D01*
X001766Y021659D01*
X001740Y021685D01*
X001717Y021714D01*
X001696Y021745D01*
X001680Y021778D01*
X001666Y021813D01*
X001657Y021848D01*
X001651Y021885D01*
X001649Y021922D01*
X001649Y027433D02*
X001651Y027470D01*
X001657Y027507D01*
X001666Y027542D01*
X001680Y027577D01*
X001696Y027610D01*
X001717Y027641D01*
X001740Y027670D01*
X001766Y027696D01*
X001795Y027719D01*
X001826Y027740D01*
X001859Y027756D01*
X001894Y027770D01*
X001929Y027779D01*
X001966Y027785D01*
X002003Y027787D01*
X002040Y027785D01*
X002077Y027779D01*
X002112Y027770D01*
X002147Y027756D01*
X002180Y027740D01*
X002211Y027719D01*
X002240Y027696D01*
X002266Y027670D01*
X002289Y027641D01*
X002310Y027610D01*
X002326Y027577D01*
X002340Y027542D01*
X002349Y027507D01*
X002355Y027470D01*
X002357Y027433D01*
X002355Y027396D01*
X002349Y027359D01*
X002340Y027324D01*
X002326Y027289D01*
X002310Y027256D01*
X002289Y027225D01*
X002266Y027196D01*
X002240Y027170D01*
X002211Y027147D01*
X002180Y027126D01*
X002147Y027110D01*
X002112Y027096D01*
X002077Y027087D01*
X002040Y027081D01*
X002003Y027079D01*
X001966Y027081D01*
X001929Y027087D01*
X001894Y027096D01*
X001859Y027110D01*
X001826Y027126D01*
X001795Y027147D01*
X001766Y027170D01*
X001740Y027196D01*
X001717Y027225D01*
X001696Y027256D01*
X001680Y027289D01*
X001666Y027324D01*
X001657Y027359D01*
X001651Y027396D01*
X001649Y027433D01*
D15*
X002003Y027433D03*
X002003Y021922D03*
D16*
X016845Y026331D03*
X033381Y026331D03*
D17*
X035152Y020032D03*
X029050Y012945D03*
X035152Y009796D03*
X021176Y017276D03*
X015074Y020032D03*
X015074Y009796D03*
D18*
X018341Y023181D02*
X017751Y023378D01*
X019326Y029087D01*
X019916Y028890D01*
X018341Y023181D01*
X018359Y023245D02*
X018151Y023245D01*
X018380Y023322D02*
X017920Y023322D01*
X017757Y023399D02*
X018402Y023399D01*
X018423Y023477D02*
X017778Y023477D01*
X017799Y023554D02*
X018444Y023554D01*
X018465Y023631D02*
X017821Y023631D01*
X017842Y023708D02*
X018487Y023708D01*
X018508Y023786D02*
X017863Y023786D01*
X017885Y023863D02*
X018529Y023863D01*
X018551Y023940D02*
X017906Y023940D01*
X017927Y024017D02*
X018572Y024017D01*
X018593Y024095D02*
X017948Y024095D01*
X017970Y024172D02*
X018615Y024172D01*
X018636Y024249D02*
X017991Y024249D01*
X018012Y024326D02*
X018657Y024326D01*
X018679Y024403D02*
X018034Y024403D01*
X018055Y024481D02*
X018700Y024481D01*
X018721Y024558D02*
X018076Y024558D01*
X018098Y024635D02*
X018742Y024635D01*
X018764Y024712D02*
X018119Y024712D01*
X018140Y024790D02*
X018785Y024790D01*
X018806Y024867D02*
X018162Y024867D01*
X018183Y024944D02*
X018828Y024944D01*
X018849Y025021D02*
X018204Y025021D01*
X018225Y025099D02*
X018870Y025099D01*
X018892Y025176D02*
X018247Y025176D01*
X018268Y025253D02*
X018913Y025253D01*
X018934Y025330D02*
X018289Y025330D01*
X018311Y025408D02*
X018956Y025408D01*
X018977Y025485D02*
X018332Y025485D01*
X018353Y025562D02*
X018998Y025562D01*
X019019Y025639D02*
X018375Y025639D01*
X018396Y025717D02*
X019041Y025717D01*
X019062Y025794D02*
X018417Y025794D01*
X018439Y025871D02*
X019083Y025871D01*
X019105Y025948D02*
X018460Y025948D01*
X018481Y026026D02*
X019126Y026026D01*
X019147Y026103D02*
X018502Y026103D01*
X018524Y026180D02*
X019169Y026180D01*
X019190Y026257D02*
X018545Y026257D01*
X018566Y026334D02*
X019211Y026334D01*
X019233Y026412D02*
X018588Y026412D01*
X018609Y026489D02*
X019254Y026489D01*
X019275Y026566D02*
X018630Y026566D01*
X018652Y026643D02*
X019296Y026643D01*
X019318Y026721D02*
X018673Y026721D01*
X018694Y026798D02*
X019339Y026798D01*
X019360Y026875D02*
X018716Y026875D01*
X018737Y026952D02*
X019382Y026952D01*
X019403Y027030D02*
X018758Y027030D01*
X018779Y027107D02*
X019424Y027107D01*
X019446Y027184D02*
X018801Y027184D01*
X018822Y027261D02*
X019467Y027261D01*
X019488Y027339D02*
X018843Y027339D01*
X018865Y027416D02*
X019510Y027416D01*
X019531Y027493D02*
X018886Y027493D01*
X018907Y027570D02*
X019552Y027570D01*
X019573Y027648D02*
X018929Y027648D01*
X018950Y027725D02*
X019595Y027725D01*
X019616Y027802D02*
X018971Y027802D01*
X018993Y027879D02*
X019637Y027879D01*
X019659Y027957D02*
X019014Y027957D01*
X019035Y028034D02*
X019680Y028034D01*
X019701Y028111D02*
X019056Y028111D01*
X019078Y028188D02*
X019723Y028188D01*
X019744Y028266D02*
X019099Y028266D01*
X019120Y028343D02*
X019765Y028343D01*
X019787Y028420D02*
X019142Y028420D01*
X019163Y028497D02*
X019808Y028497D01*
X019829Y028574D02*
X019184Y028574D01*
X019206Y028652D02*
X019850Y028652D01*
X019872Y028729D02*
X019227Y028729D01*
X019248Y028806D02*
X019893Y028806D01*
X019914Y028883D02*
X019270Y028883D01*
X019291Y028961D02*
X019705Y028961D01*
X019473Y029038D02*
X019312Y029038D01*
X020610Y028034D02*
X021255Y028034D01*
X021276Y028111D02*
X020631Y028111D01*
X020653Y028188D02*
X021297Y028188D01*
X021319Y028266D02*
X020674Y028266D01*
X020695Y028343D02*
X021340Y028343D01*
X021361Y028420D02*
X020717Y028420D01*
X020738Y028497D02*
X021383Y028497D01*
X021404Y028574D02*
X020759Y028574D01*
X020780Y028652D02*
X021425Y028652D01*
X021447Y028729D02*
X020802Y028729D01*
X020823Y028806D02*
X021468Y028806D01*
X021489Y028883D02*
X020844Y028883D01*
X020866Y028961D02*
X021280Y028961D01*
X021491Y028890D02*
X019916Y023181D01*
X019326Y023378D01*
X020901Y029087D01*
X021491Y028890D01*
X021048Y029038D02*
X020887Y029038D01*
X020589Y027957D02*
X021234Y027957D01*
X021212Y027879D02*
X020567Y027879D01*
X020546Y027802D02*
X021191Y027802D01*
X021170Y027725D02*
X020525Y027725D01*
X020503Y027648D02*
X021148Y027648D01*
X021127Y027570D02*
X020482Y027570D01*
X020461Y027493D02*
X021106Y027493D01*
X021084Y027416D02*
X020440Y027416D01*
X020418Y027339D02*
X021063Y027339D01*
X021042Y027261D02*
X020397Y027261D01*
X020376Y027184D02*
X021020Y027184D01*
X020999Y027107D02*
X020354Y027107D01*
X020333Y027030D02*
X020978Y027030D01*
X020957Y026952D02*
X020312Y026952D01*
X020290Y026875D02*
X020935Y026875D01*
X020914Y026798D02*
X020269Y026798D01*
X020248Y026721D02*
X020893Y026721D01*
X020871Y026643D02*
X020226Y026643D01*
X020205Y026566D02*
X020850Y026566D01*
X020829Y026489D02*
X020184Y026489D01*
X020163Y026412D02*
X020807Y026412D01*
X020786Y026334D02*
X020141Y026334D01*
X020120Y026257D02*
X020765Y026257D01*
X020743Y026180D02*
X020099Y026180D01*
X020077Y026103D02*
X020722Y026103D01*
X020701Y026026D02*
X020056Y026026D01*
X020035Y025948D02*
X020680Y025948D01*
X020658Y025871D02*
X020013Y025871D01*
X019992Y025794D02*
X020637Y025794D01*
X020616Y025717D02*
X019971Y025717D01*
X019949Y025639D02*
X020594Y025639D01*
X020573Y025562D02*
X019928Y025562D01*
X019907Y025485D02*
X020552Y025485D01*
X020530Y025408D02*
X019886Y025408D01*
X019864Y025330D02*
X020509Y025330D01*
X020488Y025253D02*
X019843Y025253D01*
X019822Y025176D02*
X020466Y025176D01*
X020445Y025099D02*
X019800Y025099D01*
X019779Y025021D02*
X020424Y025021D01*
X020403Y024944D02*
X019758Y024944D01*
X019736Y024867D02*
X020381Y024867D01*
X020360Y024790D02*
X019715Y024790D01*
X019694Y024712D02*
X020339Y024712D01*
X020317Y024635D02*
X019672Y024635D01*
X019651Y024558D02*
X020296Y024558D01*
X020275Y024481D02*
X019630Y024481D01*
X019609Y024403D02*
X020253Y024403D01*
X020232Y024326D02*
X019587Y024326D01*
X019566Y024249D02*
X020211Y024249D01*
X020189Y024172D02*
X019545Y024172D01*
X019523Y024095D02*
X020168Y024095D01*
X020147Y024017D02*
X019502Y024017D01*
X019481Y023940D02*
X020126Y023940D01*
X020104Y023863D02*
X019459Y023863D01*
X019438Y023786D02*
X020083Y023786D01*
X020062Y023708D02*
X019417Y023708D01*
X019395Y023631D02*
X020040Y023631D01*
X020019Y023554D02*
X019374Y023554D01*
X019353Y023477D02*
X019998Y023477D01*
X019976Y023399D02*
X019332Y023399D01*
X019494Y023322D02*
X019955Y023322D01*
X019934Y023245D02*
X019726Y023245D01*
X029759Y023181D02*
X028184Y028890D01*
X028775Y029087D01*
X030349Y023378D01*
X029759Y023181D01*
X029741Y023245D02*
X029949Y023245D01*
X029720Y023322D02*
X030181Y023322D01*
X030344Y023399D02*
X029699Y023399D01*
X029677Y023477D02*
X030322Y023477D01*
X030301Y023554D02*
X029656Y023554D01*
X029635Y023631D02*
X030280Y023631D01*
X030258Y023708D02*
X029613Y023708D01*
X029592Y023786D02*
X030237Y023786D01*
X030216Y023863D02*
X029571Y023863D01*
X029550Y023940D02*
X030194Y023940D01*
X030173Y024017D02*
X029528Y024017D01*
X029507Y024095D02*
X030152Y024095D01*
X030130Y024172D02*
X029486Y024172D01*
X029464Y024249D02*
X030109Y024249D01*
X030088Y024326D02*
X029443Y024326D01*
X029422Y024403D02*
X030067Y024403D01*
X030045Y024481D02*
X029400Y024481D01*
X029379Y024558D02*
X030024Y024558D01*
X030003Y024635D02*
X029358Y024635D01*
X029336Y024712D02*
X029981Y024712D01*
X029960Y024790D02*
X029315Y024790D01*
X029294Y024867D02*
X029939Y024867D01*
X029917Y024944D02*
X029273Y024944D01*
X029251Y025021D02*
X029896Y025021D01*
X029875Y025099D02*
X029230Y025099D01*
X029209Y025176D02*
X029853Y025176D01*
X029832Y025253D02*
X029187Y025253D01*
X029166Y025330D02*
X029811Y025330D01*
X029790Y025408D02*
X029145Y025408D01*
X029123Y025485D02*
X029768Y025485D01*
X029747Y025562D02*
X029102Y025562D01*
X029081Y025639D02*
X029726Y025639D01*
X029704Y025717D02*
X029059Y025717D01*
X029038Y025794D02*
X029683Y025794D01*
X029662Y025871D02*
X029017Y025871D01*
X028996Y025948D02*
X029640Y025948D01*
X029619Y026026D02*
X028974Y026026D01*
X028953Y026103D02*
X029598Y026103D01*
X029576Y026180D02*
X028932Y026180D01*
X028910Y026257D02*
X029555Y026257D01*
X029534Y026334D02*
X028889Y026334D01*
X028868Y026412D02*
X029513Y026412D01*
X029491Y026489D02*
X028846Y026489D01*
X028825Y026566D02*
X029470Y026566D01*
X029449Y026643D02*
X028804Y026643D01*
X028782Y026721D02*
X029427Y026721D01*
X029406Y026798D02*
X028761Y026798D01*
X028740Y026875D02*
X029385Y026875D01*
X029363Y026952D02*
X028719Y026952D01*
X028697Y027030D02*
X029342Y027030D01*
X029321Y027107D02*
X028676Y027107D01*
X028655Y027184D02*
X029299Y027184D01*
X029278Y027261D02*
X028633Y027261D01*
X028612Y027339D02*
X029257Y027339D01*
X029236Y027416D02*
X028591Y027416D01*
X028569Y027493D02*
X029214Y027493D01*
X029193Y027570D02*
X028548Y027570D01*
X028527Y027648D02*
X029172Y027648D01*
X029150Y027725D02*
X028505Y027725D01*
X028484Y027802D02*
X029129Y027802D01*
X029108Y027879D02*
X028463Y027879D01*
X028442Y027957D02*
X029086Y027957D01*
X029065Y028034D02*
X028420Y028034D01*
X028399Y028111D02*
X029044Y028111D01*
X029022Y028188D02*
X028378Y028188D01*
X028356Y028266D02*
X029001Y028266D01*
X028980Y028343D02*
X028335Y028343D01*
X028314Y028420D02*
X028959Y028420D01*
X028937Y028497D02*
X028292Y028497D01*
X028271Y028574D02*
X028916Y028574D01*
X028895Y028652D02*
X028250Y028652D01*
X028228Y028729D02*
X028873Y028729D01*
X028852Y028806D02*
X028207Y028806D01*
X028186Y028883D02*
X028831Y028883D01*
X028809Y028961D02*
X028396Y028961D01*
X028627Y029038D02*
X028788Y029038D01*
X029759Y028890D02*
X030349Y029087D01*
X031924Y023378D01*
X031334Y023181D01*
X029759Y028890D01*
X029761Y028883D02*
X030406Y028883D01*
X030427Y028806D02*
X029782Y028806D01*
X029803Y028729D02*
X030448Y028729D01*
X030469Y028652D02*
X029825Y028652D01*
X029846Y028574D02*
X030491Y028574D01*
X030512Y028497D02*
X029867Y028497D01*
X029888Y028420D02*
X030533Y028420D01*
X030555Y028343D02*
X029910Y028343D01*
X029931Y028266D02*
X030576Y028266D01*
X030597Y028188D02*
X029952Y028188D01*
X029974Y028111D02*
X030619Y028111D01*
X030640Y028034D02*
X029995Y028034D01*
X030016Y027957D02*
X030661Y027957D01*
X030683Y027879D02*
X030038Y027879D01*
X030059Y027802D02*
X030704Y027802D01*
X030725Y027725D02*
X030080Y027725D01*
X030102Y027648D02*
X030746Y027648D01*
X030768Y027570D02*
X030123Y027570D01*
X030144Y027493D02*
X030789Y027493D01*
X030810Y027416D02*
X030165Y027416D01*
X030187Y027339D02*
X030832Y027339D01*
X030853Y027261D02*
X030208Y027261D01*
X030229Y027184D02*
X030874Y027184D01*
X030896Y027107D02*
X030251Y027107D01*
X030272Y027030D02*
X030917Y027030D01*
X030938Y026952D02*
X030293Y026952D01*
X030315Y026875D02*
X030960Y026875D01*
X030981Y026798D02*
X030336Y026798D01*
X030357Y026721D02*
X031002Y026721D01*
X031023Y026643D02*
X030379Y026643D01*
X030400Y026566D02*
X031045Y026566D01*
X031066Y026489D02*
X030421Y026489D01*
X030442Y026412D02*
X031087Y026412D01*
X031109Y026334D02*
X030464Y026334D01*
X030485Y026257D02*
X031130Y026257D01*
X031151Y026180D02*
X030506Y026180D01*
X030528Y026103D02*
X031173Y026103D01*
X031194Y026026D02*
X030549Y026026D01*
X030570Y025948D02*
X031215Y025948D01*
X031237Y025871D02*
X030592Y025871D01*
X030613Y025794D02*
X031258Y025794D01*
X031279Y025717D02*
X030634Y025717D01*
X030656Y025639D02*
X031300Y025639D01*
X031322Y025562D02*
X030677Y025562D01*
X030698Y025485D02*
X031343Y025485D01*
X031364Y025408D02*
X030719Y025408D01*
X030741Y025330D02*
X031386Y025330D01*
X031407Y025253D02*
X030762Y025253D01*
X030783Y025176D02*
X031428Y025176D01*
X031450Y025099D02*
X030805Y025099D01*
X030826Y025021D02*
X031471Y025021D01*
X031492Y024944D02*
X030847Y024944D01*
X030869Y024867D02*
X031514Y024867D01*
X031535Y024790D02*
X030890Y024790D01*
X030911Y024712D02*
X031556Y024712D01*
X031577Y024635D02*
X030933Y024635D01*
X030954Y024558D02*
X031599Y024558D01*
X031620Y024481D02*
X030975Y024481D01*
X030996Y024403D02*
X031641Y024403D01*
X031663Y024326D02*
X031018Y024326D01*
X031039Y024249D02*
X031684Y024249D01*
X031705Y024172D02*
X031060Y024172D01*
X031082Y024095D02*
X031727Y024095D01*
X031748Y024017D02*
X031103Y024017D01*
X031124Y023940D02*
X031769Y023940D01*
X031791Y023863D02*
X031146Y023863D01*
X031167Y023786D02*
X031812Y023786D01*
X031833Y023708D02*
X031188Y023708D01*
X031210Y023631D02*
X031854Y023631D01*
X031876Y023554D02*
X031231Y023554D01*
X031252Y023477D02*
X031897Y023477D01*
X031918Y023399D02*
X031273Y023399D01*
X031295Y023322D02*
X031755Y023322D01*
X031524Y023245D02*
X031316Y023245D01*
X030384Y028961D02*
X029970Y028961D01*
X030202Y029038D02*
X030363Y029038D01*
D19*
X024050Y031882D03*
X015940Y029914D03*
X025310Y009441D03*
X031137Y002630D03*
D20*
X031137Y001843D03*
X024523Y009441D03*
X015152Y029914D03*
X024838Y031882D03*
X025625Y031882D03*
D21*
X011806Y028383D03*
X011806Y026483D03*
X002267Y025337D03*
X002267Y024337D03*
X002267Y023337D03*
X001267Y022837D03*
X001267Y023837D03*
X001267Y024837D03*
X001267Y028349D03*
X001267Y029349D03*
X001267Y030349D03*
X002267Y030849D03*
X002267Y029849D03*
X002267Y028849D03*
D22*
X005928Y034902D03*
X005928Y035902D03*
X006928Y035902D03*
X007928Y035902D03*
X007928Y034902D03*
X006928Y034902D03*
X008928Y034902D03*
X008928Y035902D03*
X009928Y035902D03*
X009928Y034902D03*
X010928Y034902D03*
X011928Y034902D03*
X011928Y035902D03*
X010928Y035902D03*
X012928Y035902D03*
X012928Y034902D03*
X013928Y034902D03*
X013928Y035902D03*
X014928Y035902D03*
X014928Y034902D03*
X015928Y034902D03*
X016928Y034902D03*
X016928Y035902D03*
X015928Y035902D03*
X017928Y035902D03*
X017928Y034902D03*
X018928Y034902D03*
X018928Y035902D03*
X019928Y035902D03*
X020928Y035902D03*
X020928Y034902D03*
X019928Y034902D03*
X021928Y034902D03*
X021928Y035902D03*
X022928Y035902D03*
X022928Y034902D03*
X023928Y034902D03*
X024928Y034902D03*
X024928Y035902D03*
X023928Y035902D03*
X025928Y035902D03*
X025928Y034902D03*
X026928Y034902D03*
X026928Y035902D03*
X027928Y035902D03*
X027928Y034902D03*
X028928Y034902D03*
X029928Y034902D03*
X029928Y035902D03*
X028928Y035902D03*
X030928Y035902D03*
X030928Y034902D03*
X030928Y033902D03*
X023696Y002748D03*
X001649Y016252D03*
X001609Y018260D03*
X001609Y020229D03*
D23*
X034380Y028571D02*
X034980Y028571D01*
X034980Y029571D02*
X034380Y029571D01*
X034380Y030571D02*
X034980Y030571D01*
X034980Y031571D02*
X034380Y031571D01*
D24*
X022475Y008615D03*
X009404Y017119D03*
X008656Y017119D03*
X007908Y017119D03*
X007160Y017119D03*
X006412Y017119D03*
D25*
X002428Y002150D03*
X033928Y002150D03*
X032928Y035902D03*
X003928Y035902D03*
M02*
