G75*
G70*
%OFA0B0*%
%FSLAX24Y24*%
%IPPOS*%
%LPD*%
%AMOC8*
5,1,8,0,0,1.08239X$1,22.5*
%
%ADD10C,0.0100*%
%ADD11C,0.0000*%
%ADD12C,0.0789*%
%ADD13C,0.1025*%
%ADD14C,0.0867*%
%ADD15C,0.0157*%
%ADD16C,0.0030*%
%ADD17R,0.0580X0.0300*%
%ADD18R,0.0513X0.0474*%
%ADD19R,0.0505X0.0493*%
%ADD20R,0.1064X0.1143*%
%ADD21R,0.0592X0.0356*%
%ADD22R,0.2245X0.0808*%
%ADD23R,0.0867X0.2167*%
%ADD24R,0.0781X0.0363*%
%ADD25R,0.0867X0.1340*%
%ADD26R,0.0789X0.1340*%
%ADD27R,0.0592X0.0671*%
%ADD28R,0.0640X0.0640*%
%ADD29C,0.0640*%
%ADD30R,0.0789X0.0631*%
%ADD31R,0.0671X0.0592*%
%ADD32R,0.0631X0.0474*%
%ADD33R,0.0198X0.0789*%
%ADD34C,0.0600*%
%ADD35R,0.0493X0.0505*%
%ADD36R,0.0474X0.0513*%
%ADD37R,0.0749X0.0592*%
%ADD38R,0.1340X0.1340*%
%ADD39R,0.1104X0.1340*%
%ADD40R,0.0277X0.0230*%
%ADD41R,0.0277X0.0178*%
%ADD42OC8,0.0680*%
%ADD43R,0.0671X0.0395*%
%ADD44R,0.0671X0.0316*%
%ADD45C,0.0680*%
%ADD46OC8,0.0710*%
%ADD47R,0.0395X0.0198*%
%ADD48R,0.0710X0.1025*%
%ADD49R,0.0198X0.0395*%
%ADD50R,0.1025X0.0710*%
%ADD51R,0.1025X0.1182*%
%ADD52C,0.2580*%
D10*
X000428Y000150D02*
X000428Y037906D01*
X035940Y037906D01*
X035940Y000150D01*
X000428Y000150D01*
D11*
X014680Y009796D02*
X014682Y009835D01*
X014688Y009874D01*
X014698Y009912D01*
X014711Y009949D01*
X014728Y009984D01*
X014748Y010018D01*
X014772Y010049D01*
X014799Y010078D01*
X014828Y010104D01*
X014860Y010127D01*
X014894Y010147D01*
X014930Y010163D01*
X014967Y010175D01*
X015006Y010184D01*
X015045Y010189D01*
X015084Y010190D01*
X015123Y010187D01*
X015162Y010180D01*
X015199Y010169D01*
X015236Y010155D01*
X015271Y010137D01*
X015304Y010116D01*
X015335Y010091D01*
X015363Y010064D01*
X015388Y010034D01*
X015410Y010001D01*
X015429Y009967D01*
X015444Y009931D01*
X015456Y009893D01*
X015464Y009855D01*
X015468Y009816D01*
X015468Y009776D01*
X015464Y009737D01*
X015456Y009699D01*
X015444Y009661D01*
X015429Y009625D01*
X015410Y009591D01*
X015388Y009558D01*
X015363Y009528D01*
X015335Y009501D01*
X015304Y009476D01*
X015271Y009455D01*
X015236Y009437D01*
X015199Y009423D01*
X015162Y009412D01*
X015123Y009405D01*
X015084Y009402D01*
X015045Y009403D01*
X015006Y009408D01*
X014967Y009417D01*
X014930Y009429D01*
X014894Y009445D01*
X014860Y009465D01*
X014828Y009488D01*
X014799Y009514D01*
X014772Y009543D01*
X014748Y009574D01*
X014728Y009608D01*
X014711Y009643D01*
X014698Y009680D01*
X014688Y009718D01*
X014682Y009757D01*
X014680Y009796D01*
X020782Y017276D02*
X020784Y017315D01*
X020790Y017354D01*
X020800Y017392D01*
X020813Y017429D01*
X020830Y017464D01*
X020850Y017498D01*
X020874Y017529D01*
X020901Y017558D01*
X020930Y017584D01*
X020962Y017607D01*
X020996Y017627D01*
X021032Y017643D01*
X021069Y017655D01*
X021108Y017664D01*
X021147Y017669D01*
X021186Y017670D01*
X021225Y017667D01*
X021264Y017660D01*
X021301Y017649D01*
X021338Y017635D01*
X021373Y017617D01*
X021406Y017596D01*
X021437Y017571D01*
X021465Y017544D01*
X021490Y017514D01*
X021512Y017481D01*
X021531Y017447D01*
X021546Y017411D01*
X021558Y017373D01*
X021566Y017335D01*
X021570Y017296D01*
X021570Y017256D01*
X021566Y017217D01*
X021558Y017179D01*
X021546Y017141D01*
X021531Y017105D01*
X021512Y017071D01*
X021490Y017038D01*
X021465Y017008D01*
X021437Y016981D01*
X021406Y016956D01*
X021373Y016935D01*
X021338Y016917D01*
X021301Y016903D01*
X021264Y016892D01*
X021225Y016885D01*
X021186Y016882D01*
X021147Y016883D01*
X021108Y016888D01*
X021069Y016897D01*
X021032Y016909D01*
X020996Y016925D01*
X020962Y016945D01*
X020930Y016968D01*
X020901Y016994D01*
X020874Y017023D01*
X020850Y017054D01*
X020830Y017088D01*
X020813Y017123D01*
X020800Y017160D01*
X020790Y017198D01*
X020784Y017237D01*
X020782Y017276D01*
X014680Y020032D02*
X014682Y020071D01*
X014688Y020110D01*
X014698Y020148D01*
X014711Y020185D01*
X014728Y020220D01*
X014748Y020254D01*
X014772Y020285D01*
X014799Y020314D01*
X014828Y020340D01*
X014860Y020363D01*
X014894Y020383D01*
X014930Y020399D01*
X014967Y020411D01*
X015006Y020420D01*
X015045Y020425D01*
X015084Y020426D01*
X015123Y020423D01*
X015162Y020416D01*
X015199Y020405D01*
X015236Y020391D01*
X015271Y020373D01*
X015304Y020352D01*
X015335Y020327D01*
X015363Y020300D01*
X015388Y020270D01*
X015410Y020237D01*
X015429Y020203D01*
X015444Y020167D01*
X015456Y020129D01*
X015464Y020091D01*
X015468Y020052D01*
X015468Y020012D01*
X015464Y019973D01*
X015456Y019935D01*
X015444Y019897D01*
X015429Y019861D01*
X015410Y019827D01*
X015388Y019794D01*
X015363Y019764D01*
X015335Y019737D01*
X015304Y019712D01*
X015271Y019691D01*
X015236Y019673D01*
X015199Y019659D01*
X015162Y019648D01*
X015123Y019641D01*
X015084Y019638D01*
X015045Y019639D01*
X015006Y019644D01*
X014967Y019653D01*
X014930Y019665D01*
X014894Y019681D01*
X014860Y019701D01*
X014828Y019724D01*
X014799Y019750D01*
X014772Y019779D01*
X014748Y019810D01*
X014728Y019844D01*
X014711Y019879D01*
X014698Y019916D01*
X014688Y019954D01*
X014682Y019993D01*
X014680Y020032D01*
X016373Y026331D02*
X016375Y026374D01*
X016381Y026416D01*
X016391Y026458D01*
X016404Y026499D01*
X016421Y026539D01*
X016442Y026576D01*
X016466Y026612D01*
X016493Y026645D01*
X016523Y026676D01*
X016556Y026704D01*
X016591Y026729D01*
X016628Y026750D01*
X016667Y026768D01*
X016707Y026782D01*
X016749Y026793D01*
X016791Y026800D01*
X016834Y026803D01*
X016877Y026802D01*
X016920Y026797D01*
X016962Y026788D01*
X017003Y026776D01*
X017043Y026760D01*
X017081Y026740D01*
X017117Y026717D01*
X017151Y026690D01*
X017183Y026661D01*
X017211Y026629D01*
X017237Y026594D01*
X017259Y026558D01*
X017278Y026519D01*
X017293Y026479D01*
X017305Y026438D01*
X017313Y026395D01*
X017317Y026352D01*
X017317Y026310D01*
X017313Y026267D01*
X017305Y026224D01*
X017293Y026183D01*
X017278Y026143D01*
X017259Y026104D01*
X017237Y026068D01*
X017211Y026033D01*
X017183Y026001D01*
X017151Y025972D01*
X017117Y025945D01*
X017081Y025922D01*
X017043Y025902D01*
X017003Y025886D01*
X016962Y025874D01*
X016920Y025865D01*
X016877Y025860D01*
X016834Y025859D01*
X016791Y025862D01*
X016749Y025869D01*
X016707Y025880D01*
X016667Y025894D01*
X016628Y025912D01*
X016591Y025933D01*
X016556Y025958D01*
X016523Y025986D01*
X016493Y026017D01*
X016466Y026050D01*
X016442Y026086D01*
X016421Y026123D01*
X016404Y026163D01*
X016391Y026204D01*
X016381Y026246D01*
X016375Y026288D01*
X016373Y026331D01*
X028656Y012945D02*
X028658Y012984D01*
X028664Y013023D01*
X028674Y013061D01*
X028687Y013098D01*
X028704Y013133D01*
X028724Y013167D01*
X028748Y013198D01*
X028775Y013227D01*
X028804Y013253D01*
X028836Y013276D01*
X028870Y013296D01*
X028906Y013312D01*
X028943Y013324D01*
X028982Y013333D01*
X029021Y013338D01*
X029060Y013339D01*
X029099Y013336D01*
X029138Y013329D01*
X029175Y013318D01*
X029212Y013304D01*
X029247Y013286D01*
X029280Y013265D01*
X029311Y013240D01*
X029339Y013213D01*
X029364Y013183D01*
X029386Y013150D01*
X029405Y013116D01*
X029420Y013080D01*
X029432Y013042D01*
X029440Y013004D01*
X029444Y012965D01*
X029444Y012925D01*
X029440Y012886D01*
X029432Y012848D01*
X029420Y012810D01*
X029405Y012774D01*
X029386Y012740D01*
X029364Y012707D01*
X029339Y012677D01*
X029311Y012650D01*
X029280Y012625D01*
X029247Y012604D01*
X029212Y012586D01*
X029175Y012572D01*
X029138Y012561D01*
X029099Y012554D01*
X029060Y012551D01*
X029021Y012552D01*
X028982Y012557D01*
X028943Y012566D01*
X028906Y012578D01*
X028870Y012594D01*
X028836Y012614D01*
X028804Y012637D01*
X028775Y012663D01*
X028748Y012692D01*
X028724Y012723D01*
X028704Y012757D01*
X028687Y012792D01*
X028674Y012829D01*
X028664Y012867D01*
X028658Y012906D01*
X028656Y012945D01*
X034758Y009796D02*
X034760Y009835D01*
X034766Y009874D01*
X034776Y009912D01*
X034789Y009949D01*
X034806Y009984D01*
X034826Y010018D01*
X034850Y010049D01*
X034877Y010078D01*
X034906Y010104D01*
X034938Y010127D01*
X034972Y010147D01*
X035008Y010163D01*
X035045Y010175D01*
X035084Y010184D01*
X035123Y010189D01*
X035162Y010190D01*
X035201Y010187D01*
X035240Y010180D01*
X035277Y010169D01*
X035314Y010155D01*
X035349Y010137D01*
X035382Y010116D01*
X035413Y010091D01*
X035441Y010064D01*
X035466Y010034D01*
X035488Y010001D01*
X035507Y009967D01*
X035522Y009931D01*
X035534Y009893D01*
X035542Y009855D01*
X035546Y009816D01*
X035546Y009776D01*
X035542Y009737D01*
X035534Y009699D01*
X035522Y009661D01*
X035507Y009625D01*
X035488Y009591D01*
X035466Y009558D01*
X035441Y009528D01*
X035413Y009501D01*
X035382Y009476D01*
X035349Y009455D01*
X035314Y009437D01*
X035277Y009423D01*
X035240Y009412D01*
X035201Y009405D01*
X035162Y009402D01*
X035123Y009403D01*
X035084Y009408D01*
X035045Y009417D01*
X035008Y009429D01*
X034972Y009445D01*
X034938Y009465D01*
X034906Y009488D01*
X034877Y009514D01*
X034850Y009543D01*
X034826Y009574D01*
X034806Y009608D01*
X034789Y009643D01*
X034776Y009680D01*
X034766Y009718D01*
X034760Y009757D01*
X034758Y009796D01*
X034758Y020032D02*
X034760Y020071D01*
X034766Y020110D01*
X034776Y020148D01*
X034789Y020185D01*
X034806Y020220D01*
X034826Y020254D01*
X034850Y020285D01*
X034877Y020314D01*
X034906Y020340D01*
X034938Y020363D01*
X034972Y020383D01*
X035008Y020399D01*
X035045Y020411D01*
X035084Y020420D01*
X035123Y020425D01*
X035162Y020426D01*
X035201Y020423D01*
X035240Y020416D01*
X035277Y020405D01*
X035314Y020391D01*
X035349Y020373D01*
X035382Y020352D01*
X035413Y020327D01*
X035441Y020300D01*
X035466Y020270D01*
X035488Y020237D01*
X035507Y020203D01*
X035522Y020167D01*
X035534Y020129D01*
X035542Y020091D01*
X035546Y020052D01*
X035546Y020012D01*
X035542Y019973D01*
X035534Y019935D01*
X035522Y019897D01*
X035507Y019861D01*
X035488Y019827D01*
X035466Y019794D01*
X035441Y019764D01*
X035413Y019737D01*
X035382Y019712D01*
X035349Y019691D01*
X035314Y019673D01*
X035277Y019659D01*
X035240Y019648D01*
X035201Y019641D01*
X035162Y019638D01*
X035123Y019639D01*
X035084Y019644D01*
X035045Y019653D01*
X035008Y019665D01*
X034972Y019681D01*
X034938Y019701D01*
X034906Y019724D01*
X034877Y019750D01*
X034850Y019779D01*
X034826Y019810D01*
X034806Y019844D01*
X034789Y019879D01*
X034776Y019916D01*
X034766Y019954D01*
X034760Y019993D01*
X034758Y020032D01*
X032909Y026331D02*
X032911Y026374D01*
X032917Y026416D01*
X032927Y026458D01*
X032940Y026499D01*
X032957Y026539D01*
X032978Y026576D01*
X033002Y026612D01*
X033029Y026645D01*
X033059Y026676D01*
X033092Y026704D01*
X033127Y026729D01*
X033164Y026750D01*
X033203Y026768D01*
X033243Y026782D01*
X033285Y026793D01*
X033327Y026800D01*
X033370Y026803D01*
X033413Y026802D01*
X033456Y026797D01*
X033498Y026788D01*
X033539Y026776D01*
X033579Y026760D01*
X033617Y026740D01*
X033653Y026717D01*
X033687Y026690D01*
X033719Y026661D01*
X033747Y026629D01*
X033773Y026594D01*
X033795Y026558D01*
X033814Y026519D01*
X033829Y026479D01*
X033841Y026438D01*
X033849Y026395D01*
X033853Y026352D01*
X033853Y026310D01*
X033849Y026267D01*
X033841Y026224D01*
X033829Y026183D01*
X033814Y026143D01*
X033795Y026104D01*
X033773Y026068D01*
X033747Y026033D01*
X033719Y026001D01*
X033687Y025972D01*
X033653Y025945D01*
X033617Y025922D01*
X033579Y025902D01*
X033539Y025886D01*
X033498Y025874D01*
X033456Y025865D01*
X033413Y025860D01*
X033370Y025859D01*
X033327Y025862D01*
X033285Y025869D01*
X033243Y025880D01*
X033203Y025894D01*
X033164Y025912D01*
X033127Y025933D01*
X033092Y025958D01*
X033059Y025986D01*
X033029Y026017D01*
X033002Y026050D01*
X032978Y026086D01*
X032957Y026123D01*
X032940Y026163D01*
X032927Y026204D01*
X032917Y026246D01*
X032911Y026288D01*
X032909Y026331D01*
X001649Y027433D02*
X001651Y027470D01*
X001657Y027507D01*
X001666Y027542D01*
X001680Y027577D01*
X001696Y027610D01*
X001717Y027641D01*
X001740Y027670D01*
X001766Y027696D01*
X001795Y027719D01*
X001826Y027740D01*
X001859Y027756D01*
X001894Y027770D01*
X001929Y027779D01*
X001966Y027785D01*
X002003Y027787D01*
X002040Y027785D01*
X002077Y027779D01*
X002112Y027770D01*
X002147Y027756D01*
X002180Y027740D01*
X002211Y027719D01*
X002240Y027696D01*
X002266Y027670D01*
X002289Y027641D01*
X002310Y027610D01*
X002326Y027577D01*
X002340Y027542D01*
X002349Y027507D01*
X002355Y027470D01*
X002357Y027433D01*
X002355Y027396D01*
X002349Y027359D01*
X002340Y027324D01*
X002326Y027289D01*
X002310Y027256D01*
X002289Y027225D01*
X002266Y027196D01*
X002240Y027170D01*
X002211Y027147D01*
X002180Y027126D01*
X002147Y027110D01*
X002112Y027096D01*
X002077Y027087D01*
X002040Y027081D01*
X002003Y027079D01*
X001966Y027081D01*
X001929Y027087D01*
X001894Y027096D01*
X001859Y027110D01*
X001826Y027126D01*
X001795Y027147D01*
X001766Y027170D01*
X001740Y027196D01*
X001717Y027225D01*
X001696Y027256D01*
X001680Y027289D01*
X001666Y027324D01*
X001657Y027359D01*
X001651Y027396D01*
X001649Y027433D01*
X001649Y021922D02*
X001651Y021959D01*
X001657Y021996D01*
X001666Y022031D01*
X001680Y022066D01*
X001696Y022099D01*
X001717Y022130D01*
X001740Y022159D01*
X001766Y022185D01*
X001795Y022208D01*
X001826Y022229D01*
X001859Y022245D01*
X001894Y022259D01*
X001929Y022268D01*
X001966Y022274D01*
X002003Y022276D01*
X002040Y022274D01*
X002077Y022268D01*
X002112Y022259D01*
X002147Y022245D01*
X002180Y022229D01*
X002211Y022208D01*
X002240Y022185D01*
X002266Y022159D01*
X002289Y022130D01*
X002310Y022099D01*
X002326Y022066D01*
X002340Y022031D01*
X002349Y021996D01*
X002355Y021959D01*
X002357Y021922D01*
X002355Y021885D01*
X002349Y021848D01*
X002340Y021813D01*
X002326Y021778D01*
X002310Y021745D01*
X002289Y021714D01*
X002266Y021685D01*
X002240Y021659D01*
X002211Y021636D01*
X002180Y021615D01*
X002147Y021599D01*
X002112Y021585D01*
X002077Y021576D01*
X002040Y021570D01*
X002003Y021568D01*
X001966Y021570D01*
X001929Y021576D01*
X001894Y021585D01*
X001859Y021599D01*
X001826Y021615D01*
X001795Y021636D01*
X001766Y021659D01*
X001740Y021685D01*
X001717Y021714D01*
X001696Y021745D01*
X001680Y021778D01*
X001666Y021813D01*
X001657Y021848D01*
X001651Y021885D01*
X001649Y021922D01*
D12*
X002003Y021922D03*
X002003Y027433D03*
D13*
X016845Y026331D03*
X033381Y026331D03*
D14*
X035152Y020032D03*
X029050Y012945D03*
X035152Y009796D03*
X021176Y017276D03*
X015074Y020032D03*
X015074Y009796D03*
D15*
X012633Y024953D02*
X011058Y024953D01*
X010664Y025347D01*
X010664Y027000D01*
X010940Y027000D01*
X011255Y026685D01*
X011255Y026134D01*
X011649Y025741D01*
X012042Y025741D01*
X012554Y026252D01*
X013027Y026252D01*
X013027Y025347D01*
X012633Y024953D01*
X012787Y025107D02*
X010904Y025107D01*
X010748Y025263D02*
X012943Y025263D01*
X013027Y025419D02*
X010664Y025419D01*
X010664Y025575D02*
X013027Y025575D01*
X013027Y025731D02*
X010664Y025731D01*
X010664Y025887D02*
X011502Y025887D01*
X011346Y026043D02*
X010664Y026043D01*
X010664Y026199D02*
X011255Y026199D01*
X011255Y026355D02*
X010664Y026355D01*
X010664Y026511D02*
X011255Y026511D01*
X011255Y026667D02*
X010664Y026667D01*
X010664Y026823D02*
X011118Y026823D01*
X010962Y026979D02*
X010664Y026979D01*
X010664Y027788D02*
X010664Y029481D01*
X011058Y029874D01*
X012633Y029874D01*
X013027Y029481D01*
X013027Y028615D01*
X012515Y028615D01*
X012042Y029087D01*
X011649Y029087D01*
X011255Y028693D01*
X011255Y028181D01*
X010861Y027788D01*
X010664Y027788D01*
X010664Y027915D02*
X010988Y027915D01*
X011144Y028071D02*
X010664Y028071D01*
X010664Y028227D02*
X011255Y028227D01*
X011255Y028382D02*
X010664Y028382D01*
X010664Y028538D02*
X011255Y028538D01*
X011256Y028694D02*
X010664Y028694D01*
X010664Y028850D02*
X011412Y028850D01*
X011568Y029006D02*
X010664Y029006D01*
X010664Y029162D02*
X013027Y029162D01*
X013027Y029006D02*
X012123Y029006D01*
X012279Y028850D02*
X013027Y028850D01*
X013027Y028694D02*
X012435Y028694D01*
X012436Y028142D02*
X013027Y028142D01*
X013027Y026725D01*
X012436Y026725D01*
X012436Y028142D01*
X012436Y028071D02*
X013027Y028071D01*
X013027Y027915D02*
X012436Y027915D01*
X012436Y027759D02*
X013027Y027759D01*
X013027Y027603D02*
X012436Y027603D01*
X012436Y027447D02*
X013027Y027447D01*
X013027Y027291D02*
X012436Y027291D01*
X012436Y027135D02*
X013027Y027135D01*
X013027Y026979D02*
X012436Y026979D01*
X012436Y026823D02*
X013027Y026823D01*
X013027Y026199D02*
X012500Y026199D01*
X012344Y026043D02*
X013027Y026043D01*
X013027Y025887D02*
X012188Y025887D01*
X013027Y029318D02*
X010664Y029318D01*
X010664Y029474D02*
X013027Y029474D01*
X012877Y029630D02*
X010814Y029630D01*
X010970Y029786D02*
X012721Y029786D01*
D16*
X003563Y029272D02*
X003502Y029333D01*
X003381Y029333D01*
X003320Y029272D01*
X003320Y029090D01*
X003199Y029090D02*
X003563Y029090D01*
X003563Y029272D01*
X003442Y029453D02*
X003199Y029453D01*
X003320Y029453D02*
X003442Y029574D01*
X003442Y029635D01*
X003381Y029755D02*
X003260Y029755D01*
X003199Y029816D01*
X003199Y029937D01*
X003260Y029998D01*
X003381Y029998D01*
X003442Y029937D01*
X003442Y029816D01*
X003381Y029755D01*
X003381Y030117D02*
X003260Y030117D01*
X003199Y030178D01*
X003199Y030360D01*
X003138Y030360D02*
X003442Y030360D01*
X003442Y030178D01*
X003381Y030117D01*
X003078Y030239D02*
X003078Y030299D01*
X003138Y030360D01*
X003138Y024848D02*
X003442Y024848D01*
X003442Y024666D01*
X003381Y024606D01*
X003260Y024606D01*
X003199Y024666D01*
X003199Y024848D01*
X003138Y024848D02*
X003078Y024788D01*
X003078Y024727D01*
X003199Y024486D02*
X003442Y024486D01*
X003442Y024243D02*
X003260Y024243D01*
X003199Y024304D01*
X003199Y024486D01*
X003260Y024123D02*
X003199Y024063D01*
X003199Y023881D01*
X003563Y023881D01*
X003442Y023881D02*
X003442Y024063D01*
X003381Y024123D01*
X003260Y024123D01*
X003320Y023761D02*
X003320Y023518D01*
X003260Y023518D02*
X003381Y023518D01*
X003442Y023579D01*
X003442Y023700D01*
X003381Y023761D01*
X003320Y023761D01*
X003199Y023700D02*
X003199Y023579D01*
X003260Y023518D01*
X003260Y023398D02*
X003502Y023398D01*
X003563Y023338D01*
X003563Y023156D01*
X003199Y023156D01*
X003199Y023338D01*
X003260Y023398D01*
X002776Y020911D02*
X002533Y020911D01*
X002412Y020790D01*
X002533Y020669D01*
X002776Y020669D01*
X002715Y020186D02*
X002654Y020186D01*
X002594Y020126D01*
X002533Y020186D01*
X002472Y020186D01*
X002412Y020126D01*
X002412Y020004D01*
X002472Y019944D01*
X002472Y019823D02*
X002472Y019763D01*
X002412Y019763D01*
X002412Y019823D01*
X002472Y019823D01*
X002412Y019823D02*
X002290Y019702D01*
X002412Y019521D02*
X002412Y019400D01*
X002472Y019339D01*
X002594Y019461D02*
X002594Y019521D01*
X002533Y019582D01*
X002472Y019582D01*
X002412Y019521D01*
X002594Y019521D02*
X002654Y019582D01*
X002715Y019582D01*
X002776Y019521D01*
X002776Y019400D01*
X002715Y019339D01*
X002715Y019944D02*
X002776Y020004D01*
X002776Y020126D01*
X002715Y020186D01*
X002594Y020126D02*
X002594Y020065D01*
X002472Y018549D02*
X002715Y018549D01*
X002776Y018488D01*
X002776Y018306D01*
X002412Y018306D01*
X002412Y018488D01*
X002472Y018549D01*
X002412Y018187D02*
X002776Y018187D01*
X002776Y017944D02*
X002412Y018187D01*
X002412Y017944D02*
X002776Y017944D01*
X002715Y017824D02*
X002776Y017763D01*
X002776Y017642D01*
X002715Y017581D01*
X002472Y017581D01*
X002412Y017642D01*
X002412Y017763D01*
X002472Y017824D01*
X002594Y017824D01*
X002594Y017703D01*
X002533Y016581D02*
X002412Y016459D01*
X002533Y016338D01*
X002776Y016338D01*
X002776Y016581D02*
X002533Y016581D01*
X002654Y015856D02*
X002715Y015856D01*
X002776Y015795D01*
X002776Y015674D01*
X002715Y015613D01*
X002776Y015372D02*
X002412Y015372D01*
X002412Y015493D02*
X002412Y015250D01*
X002654Y015250D02*
X002776Y015372D01*
X002412Y015613D02*
X002412Y015856D01*
X002654Y015856D02*
X002412Y015613D01*
X023099Y002104D02*
X023099Y001861D01*
X023220Y001740D01*
X023341Y001861D01*
X023341Y002104D01*
X023461Y002043D02*
X023704Y001800D01*
X023643Y001740D01*
X023522Y001740D01*
X023461Y001800D01*
X023461Y002043D01*
X023522Y002104D01*
X023643Y002104D01*
X023704Y002043D01*
X023704Y001800D01*
X023824Y001922D02*
X024066Y001922D01*
X023884Y002104D01*
X023884Y001740D01*
X024186Y001922D02*
X024429Y001922D01*
X024307Y002043D02*
X024307Y001800D01*
D17*
X009373Y002339D03*
X009373Y002709D03*
X009373Y003079D03*
X008413Y003079D03*
X008413Y002339D03*
D18*
X010901Y002414D03*
X010901Y001863D03*
X010901Y001193D03*
X010901Y003083D03*
X009129Y025170D03*
X009129Y025839D03*
X008341Y025839D03*
X008341Y025170D03*
X007554Y025170D03*
X007554Y025839D03*
X006767Y025839D03*
X006767Y025170D03*
X005979Y025170D03*
X005979Y025839D03*
X004247Y029225D03*
X004247Y029894D03*
X006491Y031863D03*
X007121Y031863D03*
X007751Y031863D03*
X008381Y031863D03*
X008381Y032532D03*
X007751Y032532D03*
X007121Y032532D03*
X006491Y032532D03*
X015251Y030504D03*
X015920Y030504D03*
X018322Y028339D03*
X018991Y028339D03*
X024030Y027237D03*
X024700Y027237D03*
D19*
X023027Y030357D03*
X023027Y031046D03*
X009011Y031853D03*
X009011Y032542D03*
X010192Y003093D03*
X010192Y002404D03*
D20*
X010586Y003955D03*
D21*
X010586Y004861D03*
D22*
X012278Y004067D03*
X012278Y002059D03*
X014641Y002059D03*
X014641Y004067D03*
X017003Y004067D03*
X017003Y002059D03*
X019365Y002886D03*
X019365Y000878D03*
X021727Y000878D03*
X021727Y002886D03*
D23*
X009582Y004441D03*
X008204Y004441D03*
D24*
X015805Y005069D03*
X015805Y005569D03*
X015805Y006069D03*
X015805Y006569D03*
X015805Y007077D03*
X015805Y007577D03*
X015805Y008077D03*
X015805Y008577D03*
X017807Y008577D03*
X017807Y008077D03*
X017807Y007577D03*
X017807Y007077D03*
X017807Y006569D03*
X017807Y006069D03*
X017807Y005569D03*
X017807Y005069D03*
D25*
X018696Y005741D03*
X021058Y005741D03*
D26*
X020940Y008103D03*
X020940Y009520D03*
X018735Y009520D03*
X018735Y008103D03*
D27*
X018715Y003811D03*
X019464Y003811D03*
X020290Y003811D03*
X021038Y003811D03*
X013164Y006607D03*
X012416Y006607D03*
X012023Y007867D03*
X011275Y007867D03*
X011235Y009126D03*
X011983Y009126D03*
D28*
X025310Y009441D03*
X031137Y002630D03*
X015940Y029914D03*
X024050Y031882D03*
D29*
X024838Y031882D03*
X025625Y031882D03*
X015152Y029914D03*
X024523Y009441D03*
X031137Y001843D03*
D30*
X013971Y005347D03*
X013971Y006685D03*
X012830Y007827D03*
X012830Y009166D03*
D31*
X013735Y008595D03*
X013735Y007847D03*
X014798Y006548D03*
X014798Y005800D03*
X013145Y005760D03*
X013145Y005012D03*
D32*
X012318Y005347D03*
X011452Y005721D03*
X011452Y004973D03*
X010782Y006193D03*
X010782Y006941D03*
X010507Y007867D03*
X009641Y008241D03*
X009641Y008752D03*
X009641Y009500D03*
X010507Y009126D03*
X009641Y007493D03*
X011649Y006567D03*
D33*
X010408Y027807D03*
X010152Y027807D03*
X009897Y027807D03*
X009641Y027807D03*
X009385Y027807D03*
X009129Y027807D03*
X008873Y027807D03*
X008617Y027807D03*
X008361Y027807D03*
X008105Y027807D03*
X007849Y027807D03*
X007593Y027807D03*
X007338Y027807D03*
X007082Y027807D03*
X006826Y027807D03*
X006570Y027807D03*
X006314Y027807D03*
X006058Y027807D03*
X005802Y027807D03*
X005802Y030760D03*
X006058Y030760D03*
X006314Y030760D03*
X006570Y030760D03*
X006826Y030760D03*
X007082Y030760D03*
X007338Y030760D03*
X007593Y030760D03*
X007849Y030760D03*
X008105Y030760D03*
X008361Y030760D03*
X008617Y030760D03*
X008873Y030760D03*
X009129Y030760D03*
X009385Y030760D03*
X009641Y030760D03*
X009897Y030760D03*
X010152Y030760D03*
X010408Y030760D03*
D34*
X011806Y028383D03*
X011806Y026483D03*
X002267Y025337D03*
X002267Y024337D03*
X002267Y023337D03*
X001267Y022837D03*
X001267Y023837D03*
X001267Y024837D03*
X001267Y028349D03*
X001267Y029349D03*
X001267Y030349D03*
X002267Y030849D03*
X002267Y029849D03*
X002267Y028849D03*
D35*
X009926Y032158D03*
X010615Y032158D03*
D36*
X014070Y030819D03*
X014739Y030819D03*
X014424Y029244D03*
X015093Y029244D03*
X015212Y028339D03*
X015881Y028339D03*
X013578Y028359D03*
X013578Y027689D03*
X013578Y027178D03*
X013578Y026508D03*
X009523Y026390D03*
X009523Y027059D03*
X005074Y029225D03*
X005074Y029894D03*
X021275Y026410D03*
X021944Y026410D03*
X024030Y026607D03*
X024700Y026607D03*
X030310Y002571D03*
X030310Y001902D03*
D37*
X025428Y007315D03*
X025428Y008181D03*
X024326Y008181D03*
X024326Y007315D03*
D38*
X025015Y005859D03*
X022298Y005859D03*
D39*
X023656Y005859D03*
D40*
X011875Y030386D03*
X011501Y030386D03*
X011501Y031016D03*
X011501Y031331D03*
X011875Y031331D03*
X011875Y031016D03*
X011875Y031961D03*
X011501Y031961D03*
D41*
X011501Y031744D03*
X011501Y031548D03*
X011875Y031548D03*
X011875Y031744D03*
X011875Y030800D03*
X011875Y030603D03*
X011501Y030603D03*
X011501Y030800D03*
D42*
X011928Y034902D03*
X010928Y034902D03*
X009928Y034902D03*
X008928Y034902D03*
X007928Y034902D03*
X006928Y034902D03*
X005928Y034902D03*
X005928Y035902D03*
X006928Y035902D03*
X007928Y035902D03*
X008928Y035902D03*
X009928Y035902D03*
X010928Y035902D03*
X011928Y035902D03*
X012928Y035902D03*
X012928Y034902D03*
X013928Y034902D03*
X013928Y035902D03*
X014928Y035902D03*
X014928Y034902D03*
X015928Y034902D03*
X016928Y034902D03*
X016928Y035902D03*
X015928Y035902D03*
X017928Y035902D03*
X017928Y034902D03*
X018928Y034902D03*
X018928Y035902D03*
X019928Y035902D03*
X020928Y035902D03*
X020928Y034902D03*
X019928Y034902D03*
X021928Y034902D03*
X021928Y035902D03*
X022928Y035902D03*
X022928Y034902D03*
X023928Y034902D03*
X024928Y034902D03*
X024928Y035902D03*
X023928Y035902D03*
X025928Y035902D03*
X025928Y034902D03*
X026928Y034902D03*
X026928Y035902D03*
X027928Y035902D03*
X027928Y034902D03*
X028928Y034902D03*
X029928Y034902D03*
X029928Y035902D03*
X028928Y035902D03*
X030928Y035902D03*
X030928Y034902D03*
X030928Y033902D03*
X023696Y002748D03*
X001649Y016252D03*
X001609Y018260D03*
X001609Y020229D03*
D43*
X018932Y033181D03*
X018932Y034048D03*
X019916Y034048D03*
X019916Y033181D03*
X020901Y033181D03*
X020901Y034048D03*
D44*
X020901Y033615D03*
X019916Y033615D03*
X018932Y033615D03*
D45*
X034380Y031571D02*
X034980Y031571D01*
X034980Y030571D02*
X034380Y030571D01*
X034380Y029571D02*
X034980Y029571D01*
X034980Y028571D02*
X034380Y028571D01*
D46*
X022475Y008615D03*
X009404Y017119D03*
X008656Y017119D03*
X007908Y017119D03*
X007160Y017119D03*
X006412Y017119D03*
D47*
X016435Y028474D03*
X016435Y028730D03*
X016435Y028986D03*
X016435Y029242D03*
X017596Y029242D03*
X017596Y028986D03*
X017596Y028730D03*
X017596Y028474D03*
D48*
X017007Y028859D03*
D49*
X022517Y027554D03*
X022773Y027554D03*
X023029Y027554D03*
X023285Y027554D03*
X023285Y026393D03*
X023029Y026393D03*
X022773Y026393D03*
X022517Y026393D03*
D50*
X022900Y026965D03*
D51*
X006353Y010111D03*
X006353Y008221D03*
X006353Y006292D03*
X003873Y006292D03*
X003873Y008221D03*
X003873Y010111D03*
D52*
X002428Y002150D03*
X033928Y002150D03*
X032928Y035902D03*
X003928Y035902D03*
M02*
