%
M48
M72
T01C0.0197
T02C0.0236
T03C0.0400
T04C0.0433
T05C0.0630
T06C0.1180
T07C0.1252
%
T01
X2469Y3129
X6799Y6672
X7390Y6869
X9161Y4704
X9555Y4704
X9949Y4704
X10343Y4704
X11917Y4310
X12311Y4310
X12705Y4310
X12705Y3916
X12705Y3523
X12705Y3129
X12311Y3129
X11917Y3129
X11524Y2735
X10736Y2735
X12311Y5019
X13492Y2735
X14280Y2735
X16248Y2735
X17035Y2735
X19004Y2735
X19791Y2735
X21760Y2735
X22547Y2735
X23335Y5097
X22154Y6278
X18768Y5215
X27665Y5885
X32783Y5885
X29240Y10215
X36327Y10215
X2469Y10215
T02
X13413Y5412
T03
X13181Y7960
X14181Y7960
X15181Y7960
X16181Y7960
X17181Y7960
X18181Y7960
X19181Y7960
X20181Y7960
X21181Y7960
X22181Y7960
X23181Y7960
X24181Y7960
X25181Y7960
X26181Y7960
X27181Y7960
X28181Y7960
X29181Y7960
X30181Y7960
X31181Y7960
X32181Y7960
X32181Y6960
X32181Y8960
X31181Y8960
X30181Y8960
X29181Y8960
X28181Y8960
X27181Y8960
X26181Y8960
X25181Y8960
X24181Y8960
X23181Y8960
X22181Y8960
X21181Y8960
X20181Y8960
X19181Y8960
X18181Y8960
X17181Y8960
X16181Y8960
X15181Y8960
X14181Y8960
X13181Y8960
X12181Y8960
X11181Y8960
X10181Y8960
X9181Y8960
X8181Y8960
X7181Y8960
X7181Y7960
X8181Y7960
X9181Y7960
X10181Y7960
X11181Y7960
X12181Y7960
X25181Y10215
X26181Y10215
X27181Y10215
X28181Y10215
T04
X28965Y5885
X29949Y5885
X30933Y5885
X33689Y5885
X34673Y5885
X35657Y5885
X26209Y5885
X25224Y5885
X24240Y5885
T05
X23453Y3129
X26996Y3129
X28177Y3129
X31720Y3129
X32902Y3129
X36445Y3129
T06
X5894Y5491
X4713Y3641
X3531Y5491
T07
X5181Y8960
X34181Y8960
M30
