G75*
G70*
%OFA0B0*%
%FSLAX24Y24*%
%IPPOS*%
%LPD*%
%AMOC8*
5,1,8,0,0,1.08239X$1,22.5*
%
%ADD10C,0.0100*%
%ADD11C,0.0060*%
%ADD12C,0.0000*%
%ADD13C,0.0080*%
%ADD14C,0.0040*%
D10*
X001681Y002341D02*
X001681Y010964D01*
X037193Y010964D01*
X037193Y002341D01*
X001681Y002341D01*
D11*
X007380Y002490D02*
X008029Y002490D01*
X007704Y002490D02*
X007704Y002922D01*
X007813Y003142D02*
X007380Y003142D01*
X007380Y002922D02*
X008029Y002922D01*
X007813Y003142D02*
X008029Y003359D01*
X007813Y003575D01*
X007380Y003575D01*
X007704Y004447D02*
X007704Y004880D01*
X007488Y004664D02*
X007921Y004664D01*
X010096Y003575D02*
X010529Y003575D01*
X010746Y003359D01*
X010529Y003142D01*
X010096Y003142D01*
X010096Y002922D02*
X010746Y002922D01*
X010421Y002922D02*
X010421Y002490D01*
X010746Y002490D02*
X010096Y002490D01*
X010421Y004447D02*
X010421Y004880D01*
X012931Y004664D02*
X013580Y004664D01*
X013580Y004880D02*
X013580Y004447D01*
X013580Y004227D02*
X012931Y004227D01*
X013147Y004447D02*
X012931Y004664D01*
X013580Y004227D02*
X012931Y003795D01*
X013580Y003795D01*
X013472Y003575D02*
X012931Y003575D01*
X012931Y003142D02*
X013472Y003142D01*
X013580Y003250D01*
X013580Y003467D01*
X013472Y003575D01*
X013472Y002922D02*
X013256Y002922D01*
X013256Y002706D01*
X013472Y002922D02*
X013580Y002814D01*
X013580Y002598D01*
X013472Y002490D01*
X013039Y002490D01*
X012931Y002598D01*
X012931Y002814D01*
X013039Y002922D01*
X015648Y002814D02*
X015648Y002598D01*
X015756Y002490D01*
X016189Y002490D01*
X016297Y002598D01*
X016297Y002814D01*
X016189Y002922D01*
X015972Y002922D01*
X015972Y002706D01*
X015756Y002922D02*
X015648Y002814D01*
X015648Y003142D02*
X016189Y003142D01*
X016297Y003250D01*
X016297Y003467D01*
X016189Y003575D01*
X015648Y003575D01*
X015648Y003795D02*
X016297Y004227D01*
X015648Y004227D01*
X015756Y004447D02*
X015648Y004555D01*
X015648Y004772D01*
X015756Y004880D01*
X016189Y004447D01*
X016297Y004555D01*
X016297Y004772D01*
X016189Y004880D01*
X015756Y004880D01*
X015756Y004447D02*
X016189Y004447D01*
X016297Y003795D02*
X015648Y003795D01*
X018364Y003677D02*
X019013Y004109D01*
X018364Y004109D01*
X018472Y004329D02*
X018364Y004437D01*
X018364Y004654D01*
X018472Y004762D01*
X018580Y004762D01*
X019013Y004329D01*
X019013Y004762D01*
X019013Y003677D02*
X018364Y003677D01*
X018364Y003457D02*
X018905Y003457D01*
X019013Y003349D01*
X019013Y003132D01*
X018905Y003024D01*
X018364Y003024D01*
X018472Y002804D02*
X018364Y002696D01*
X018364Y002480D01*
X018472Y002371D01*
X018905Y002371D01*
X019013Y002480D01*
X019013Y002696D01*
X018905Y002804D01*
X018689Y002804D01*
X018689Y002588D01*
X021120Y002696D02*
X021120Y002480D01*
X021228Y002371D01*
X021661Y002371D01*
X021769Y002480D01*
X021769Y002696D01*
X021661Y002804D01*
X021445Y002804D01*
X021445Y002588D01*
X021228Y002804D02*
X021120Y002696D01*
X021120Y003024D02*
X021661Y003024D01*
X021769Y003132D01*
X021769Y003349D01*
X021661Y003457D01*
X021120Y003457D01*
X021120Y003677D02*
X021769Y004109D01*
X021120Y004109D01*
X021228Y004329D02*
X021120Y004437D01*
X021120Y004654D01*
X021228Y004762D01*
X021336Y004762D01*
X021445Y004654D01*
X021553Y004762D01*
X021661Y004762D01*
X021769Y004654D01*
X021769Y004437D01*
X021661Y004329D01*
X021445Y004545D02*
X021445Y004654D01*
X021769Y003677D02*
X021120Y003677D01*
X023758Y006308D02*
X023758Y006741D01*
X023975Y006958D01*
X024191Y006741D01*
X024191Y006308D01*
X024411Y006308D02*
X024411Y006741D01*
X024735Y006741D01*
X024844Y006633D01*
X024844Y006308D01*
X025063Y006417D02*
X025172Y006308D01*
X025388Y006308D01*
X025496Y006417D01*
X025496Y006633D01*
X025388Y006741D01*
X025172Y006741D01*
X025063Y006633D01*
X025063Y006417D01*
X025716Y006417D02*
X025716Y006633D01*
X025824Y006741D01*
X026149Y006741D01*
X026149Y006958D02*
X026149Y006308D01*
X025824Y006308D01*
X025716Y006417D01*
X026368Y006417D02*
X026368Y006633D01*
X026477Y006741D01*
X026693Y006741D01*
X026801Y006633D01*
X026801Y006525D01*
X026368Y006525D01*
X026368Y006417D02*
X026477Y006308D01*
X026693Y006308D01*
X027695Y006958D02*
X028128Y006958D01*
X027912Y006958D02*
X027912Y006308D01*
X028348Y006417D02*
X028348Y006633D01*
X028456Y006741D01*
X028672Y006741D01*
X028781Y006633D01*
X028781Y006525D01*
X028348Y006525D01*
X028348Y006417D02*
X028456Y006308D01*
X028672Y006308D01*
X029109Y006417D02*
X029217Y006308D01*
X029109Y006417D02*
X029109Y006849D01*
X029217Y006741D02*
X029000Y006741D01*
X029435Y006633D02*
X029544Y006741D01*
X029760Y006741D01*
X029868Y006633D01*
X029868Y006308D01*
X030088Y006417D02*
X030088Y006633D01*
X030196Y006741D01*
X030413Y006741D01*
X030521Y006633D01*
X030521Y006525D01*
X030088Y006525D01*
X030088Y006417D02*
X030196Y006308D01*
X030413Y006308D01*
X030740Y006308D02*
X030740Y006741D01*
X030740Y006525D02*
X030957Y006741D01*
X031065Y006741D01*
X031284Y006633D02*
X031717Y006633D01*
X031681Y006710D02*
X031931Y006460D01*
X032431Y006460D01*
X032681Y006710D01*
X032681Y007210D01*
X032431Y007460D01*
X031931Y007460D01*
X031681Y007210D01*
X031681Y006710D01*
X031501Y006849D02*
X031501Y006417D01*
X032813Y006958D02*
X033246Y006958D01*
X033030Y006958D02*
X033030Y006308D01*
X033466Y006417D02*
X033466Y006633D01*
X033574Y006741D01*
X033791Y006741D01*
X033899Y006633D01*
X033899Y006525D01*
X033466Y006525D01*
X033466Y006417D02*
X033574Y006308D01*
X033791Y006308D01*
X034227Y006417D02*
X034335Y006308D01*
X034227Y006417D02*
X034227Y006849D01*
X034119Y006741D02*
X034335Y006741D01*
X034554Y006633D02*
X034662Y006741D01*
X034878Y006741D01*
X034986Y006633D01*
X034986Y006308D01*
X035206Y006417D02*
X035206Y006633D01*
X035314Y006741D01*
X035531Y006741D01*
X035639Y006633D01*
X035639Y006525D01*
X035206Y006525D01*
X035206Y006417D02*
X035314Y006308D01*
X035531Y006308D01*
X035859Y006308D02*
X035859Y006741D01*
X035859Y006525D02*
X036075Y006741D01*
X036183Y006741D01*
X036402Y006633D02*
X036835Y006633D01*
X034554Y006958D02*
X034554Y006308D01*
X032681Y007710D02*
X032431Y007460D01*
X031931Y007460D01*
X031681Y007710D01*
X031681Y008210D01*
X031931Y008460D01*
X032431Y008460D01*
X032681Y008710D01*
X032681Y009210D01*
X032431Y009460D01*
X031931Y009460D01*
X031681Y009210D01*
X031681Y008710D01*
X031931Y008460D01*
X032431Y008460D01*
X032681Y008210D01*
X032681Y007710D01*
X031681Y007710D02*
X031431Y007460D01*
X030931Y007460D01*
X030681Y007710D01*
X030431Y007460D01*
X029931Y007460D01*
X029681Y007710D01*
X029431Y007460D01*
X028931Y007460D01*
X028681Y007710D01*
X028431Y007460D01*
X027931Y007460D01*
X027681Y007710D01*
X027431Y007460D01*
X026931Y007460D01*
X026681Y007710D01*
X026681Y009210D01*
X026931Y009460D01*
X027431Y009460D01*
X027681Y009210D01*
X027931Y009460D01*
X028431Y009460D01*
X028681Y009210D01*
X028931Y009460D01*
X029431Y009460D01*
X029681Y009210D01*
X029931Y009460D01*
X030431Y009460D01*
X030681Y009210D01*
X030931Y009460D01*
X031431Y009460D01*
X031681Y009210D01*
X031681Y007710D01*
X030681Y007710D02*
X030681Y009210D01*
X029681Y009210D02*
X029681Y007710D01*
X029435Y006958D02*
X029435Y006308D01*
X028681Y007710D02*
X028681Y009210D01*
X028431Y009715D02*
X027931Y009715D01*
X027681Y009965D01*
X027431Y009715D01*
X026931Y009715D01*
X026681Y009965D01*
X026431Y009715D01*
X025931Y009715D01*
X025681Y009965D01*
X025431Y009715D01*
X024931Y009715D01*
X024681Y009965D01*
X024681Y010465D01*
X024931Y010715D01*
X025431Y010715D01*
X025681Y010465D01*
X025931Y010715D01*
X026431Y010715D01*
X026681Y010465D01*
X026681Y009965D01*
X026681Y010465D02*
X026931Y010715D01*
X027431Y010715D01*
X027681Y010465D01*
X027931Y010715D01*
X028431Y010715D01*
X028681Y010465D01*
X028681Y009965D01*
X028431Y009715D01*
X027681Y009965D02*
X027681Y010465D01*
X027681Y009210D02*
X027681Y007710D01*
X026681Y007710D02*
X026431Y007460D01*
X025931Y007460D01*
X025681Y007710D01*
X025681Y009210D01*
X025931Y009460D01*
X026431Y009460D01*
X026681Y009210D01*
X025681Y009210D02*
X025431Y009460D01*
X024931Y009460D01*
X024681Y009210D01*
X024681Y007710D01*
X024431Y007460D01*
X023931Y007460D01*
X023681Y007710D01*
X023681Y009210D01*
X023931Y009460D01*
X024431Y009460D01*
X024681Y009210D01*
X023681Y009210D02*
X023431Y009460D01*
X022931Y009460D01*
X022681Y009210D01*
X022681Y007710D01*
X022431Y007460D01*
X021931Y007460D01*
X021681Y007710D01*
X021681Y009210D01*
X021931Y009460D01*
X022431Y009460D01*
X022681Y009210D01*
X021681Y009210D02*
X021431Y009460D01*
X020931Y009460D01*
X020681Y009210D01*
X020681Y007710D01*
X020431Y007460D01*
X019931Y007460D01*
X019681Y007710D01*
X019681Y009210D01*
X019931Y009460D01*
X020431Y009460D01*
X020681Y009210D01*
X019681Y009210D02*
X019431Y009460D01*
X018931Y009460D01*
X018681Y009210D01*
X018681Y007710D01*
X018431Y007460D01*
X017931Y007460D01*
X017681Y007710D01*
X017681Y009210D01*
X017931Y009460D01*
X018431Y009460D01*
X018681Y009210D01*
X017681Y009210D02*
X017431Y009460D01*
X016931Y009460D01*
X016681Y009210D01*
X016681Y007710D01*
X016431Y007460D01*
X015931Y007460D01*
X015681Y007710D01*
X015681Y009210D01*
X015931Y009460D01*
X016431Y009460D01*
X016681Y009210D01*
X015681Y009210D02*
X015431Y009460D01*
X014931Y009460D01*
X014681Y009210D01*
X014681Y007710D01*
X014431Y007460D01*
X013931Y007460D01*
X013681Y007710D01*
X013681Y009210D01*
X013931Y009460D01*
X014431Y009460D01*
X014681Y009210D01*
X013681Y009210D02*
X013431Y009460D01*
X012931Y009460D01*
X012681Y009210D01*
X012681Y007710D01*
X012931Y007460D01*
X013431Y007460D01*
X013681Y007710D01*
X012681Y007710D02*
X012431Y007460D01*
X011931Y007460D01*
X011681Y007710D01*
X011681Y009210D01*
X011931Y009460D01*
X012431Y009460D01*
X012681Y009210D01*
X011681Y009210D02*
X011431Y009460D01*
X010931Y009460D01*
X010681Y009210D01*
X010681Y007710D01*
X010931Y007460D01*
X011431Y007460D01*
X011681Y007710D01*
X010681Y007710D02*
X010431Y007460D01*
X009931Y007460D01*
X009681Y007710D01*
X009681Y009210D01*
X009931Y009460D01*
X010431Y009460D01*
X010681Y009210D01*
X009681Y009210D02*
X009431Y009460D01*
X008931Y009460D01*
X008681Y009210D01*
X008681Y007710D01*
X008931Y007460D01*
X009431Y007460D01*
X009681Y007710D01*
X008681Y007710D02*
X008431Y007460D01*
X007931Y007460D01*
X007681Y007710D01*
X007681Y009210D01*
X007931Y009460D01*
X008431Y009460D01*
X008681Y009210D01*
X007681Y009210D02*
X007431Y009460D01*
X006931Y009460D01*
X006681Y009210D01*
X006681Y007710D01*
X006931Y007460D01*
X007431Y007460D01*
X007681Y007710D01*
X014681Y007710D02*
X014931Y007460D01*
X015431Y007460D01*
X015681Y007710D01*
X016681Y007710D02*
X016931Y007460D01*
X017431Y007460D01*
X017681Y007710D01*
X018681Y007710D02*
X018931Y007460D01*
X019431Y007460D01*
X019681Y007710D01*
X020681Y007710D02*
X020931Y007460D01*
X021431Y007460D01*
X021681Y007710D01*
X022681Y007710D02*
X022931Y007460D01*
X023431Y007460D01*
X023681Y007710D01*
X024681Y007710D02*
X024931Y007460D01*
X025431Y007460D01*
X025681Y007710D01*
X024191Y006633D02*
X023758Y006633D01*
X025681Y009965D02*
X025681Y010465D01*
D12*
X026281Y010215D02*
X027081Y010215D01*
X026681Y009815D02*
X026681Y010615D01*
X031781Y008960D02*
X032581Y008960D01*
X032181Y008560D02*
X032181Y009360D01*
X032181Y008360D02*
X032181Y007560D01*
X032181Y007360D02*
X032181Y006560D01*
X031781Y006960D02*
X032581Y006960D01*
X032581Y007960D02*
X031781Y007960D01*
X029949Y003529D02*
X029949Y002729D01*
X029549Y003129D02*
X030349Y003129D01*
X034273Y003129D02*
X035073Y003129D01*
X034673Y002729D02*
X034673Y003529D01*
X025624Y003129D02*
X024824Y003129D01*
X025224Y002729D02*
X025224Y003529D01*
X022518Y003129D02*
X021789Y003129D01*
X022154Y002765D02*
X022154Y003493D01*
X022154Y003910D02*
X022154Y004710D01*
X021754Y004310D02*
X022554Y004310D01*
X019798Y004310D02*
X018998Y004310D01*
X019398Y003910D02*
X019398Y004710D01*
X019398Y003493D02*
X019398Y002765D01*
X019762Y003129D02*
X019033Y003129D01*
X017006Y003129D02*
X016277Y003129D01*
X016642Y002765D02*
X016642Y003493D01*
X016642Y003910D02*
X016642Y004710D01*
X016242Y004310D02*
X017042Y004310D01*
X014286Y004310D02*
X013486Y004310D01*
X013886Y003910D02*
X013886Y004710D01*
X013886Y003493D02*
X013886Y002765D01*
X013522Y003129D02*
X014250Y003129D01*
X011494Y003129D02*
X010766Y003129D01*
X011130Y002765D02*
X011130Y003493D01*
X011130Y003910D02*
X011130Y004710D01*
X010730Y004310D02*
X011530Y004310D01*
X008774Y004310D02*
X007974Y004310D01*
X008374Y003910D02*
X008374Y004710D01*
X008374Y003493D02*
X008374Y002765D01*
X008010Y003129D02*
X008738Y003129D01*
X000900Y005491D02*
X000100Y005491D01*
X000500Y005091D02*
X000500Y005891D01*
X018781Y008460D02*
X019581Y008460D01*
X019181Y008060D02*
X019181Y008860D01*
D13*
X023394Y005235D02*
X023394Y003975D01*
X022335Y003062D02*
X022154Y003062D01*
X022061Y003184D01*
X021972Y003062D02*
X022154Y003062D01*
X022164Y003068D02*
X022240Y003184D01*
X023394Y002086D02*
X023394Y001219D01*
X023610Y001219D01*
X023610Y001003D01*
X026839Y001003D01*
X026839Y001219D01*
X027055Y001219D01*
X027055Y002086D01*
X028118Y002086D02*
X028118Y001219D01*
X028335Y001219D01*
X028335Y001003D01*
X031563Y001003D01*
X031563Y001219D01*
X031780Y001219D01*
X031780Y002086D01*
X032843Y002086D02*
X032843Y001219D01*
X033059Y001219D01*
X033059Y001003D01*
X036287Y001003D01*
X036287Y001219D01*
X036504Y001219D01*
X036504Y002086D01*
X033748Y003129D02*
X033750Y003189D01*
X033756Y003250D01*
X033766Y003309D01*
X033780Y003368D01*
X033797Y003426D01*
X033818Y003483D01*
X033843Y003538D01*
X033872Y003591D01*
X033904Y003643D01*
X033939Y003692D01*
X033978Y003739D01*
X034019Y003783D01*
X034063Y003824D01*
X034110Y003863D01*
X034159Y003898D01*
X034210Y003930D01*
X034264Y003959D01*
X034319Y003984D01*
X034376Y004005D01*
X034434Y004022D01*
X034493Y004036D01*
X034552Y004046D01*
X034613Y004052D01*
X034673Y004054D01*
X034733Y004052D01*
X034794Y004046D01*
X034853Y004036D01*
X034912Y004022D01*
X034970Y004005D01*
X035027Y003984D01*
X035082Y003959D01*
X035135Y003930D01*
X035187Y003898D01*
X035236Y003863D01*
X035283Y003824D01*
X035327Y003783D01*
X035368Y003739D01*
X035407Y003692D01*
X035442Y003643D01*
X035474Y003592D01*
X035503Y003538D01*
X035528Y003483D01*
X035549Y003426D01*
X035566Y003368D01*
X035580Y003309D01*
X035590Y003250D01*
X035596Y003189D01*
X035598Y003129D01*
X035596Y003069D01*
X035590Y003008D01*
X035580Y002949D01*
X035566Y002890D01*
X035549Y002832D01*
X035528Y002775D01*
X035503Y002720D01*
X035474Y002667D01*
X035442Y002615D01*
X035407Y002566D01*
X035368Y002519D01*
X035327Y002475D01*
X035283Y002434D01*
X035236Y002395D01*
X035187Y002360D01*
X035136Y002328D01*
X035082Y002299D01*
X035027Y002274D01*
X034970Y002253D01*
X034912Y002236D01*
X034853Y002222D01*
X034794Y002212D01*
X034733Y002206D01*
X034673Y002204D01*
X034613Y002206D01*
X034552Y002212D01*
X034493Y002222D01*
X034434Y002236D01*
X034376Y002253D01*
X034319Y002274D01*
X034264Y002299D01*
X034211Y002328D01*
X034159Y002360D01*
X034110Y002395D01*
X034063Y002434D01*
X034019Y002475D01*
X033978Y002519D01*
X033939Y002566D01*
X033904Y002615D01*
X033872Y002666D01*
X033843Y002720D01*
X033818Y002775D01*
X033797Y002832D01*
X033780Y002890D01*
X033766Y002949D01*
X033756Y003008D01*
X033750Y003069D01*
X033748Y003129D01*
X033531Y003129D02*
X033533Y003196D01*
X033539Y003263D01*
X033549Y003329D01*
X033562Y003395D01*
X033580Y003460D01*
X033601Y003523D01*
X033626Y003585D01*
X033655Y003646D01*
X033687Y003705D01*
X033722Y003762D01*
X033761Y003816D01*
X033803Y003869D01*
X033848Y003919D01*
X033896Y003966D01*
X033946Y004010D01*
X033999Y004051D01*
X034054Y004089D01*
X034112Y004124D01*
X034171Y004155D01*
X034232Y004182D01*
X034295Y004207D01*
X034359Y004227D01*
X034424Y004243D01*
X034489Y004256D01*
X034556Y004265D01*
X034623Y004270D01*
X034690Y004271D01*
X034757Y004268D01*
X034823Y004261D01*
X034890Y004250D01*
X034955Y004236D01*
X035020Y004217D01*
X035083Y004195D01*
X035145Y004169D01*
X035205Y004140D01*
X035263Y004107D01*
X035320Y004070D01*
X035374Y004031D01*
X035425Y003988D01*
X035475Y003942D01*
X035521Y003894D01*
X035564Y003843D01*
X035605Y003789D01*
X035642Y003734D01*
X035676Y003676D01*
X035706Y003616D01*
X035733Y003554D01*
X035756Y003491D01*
X035775Y003427D01*
X035791Y003362D01*
X035803Y003296D01*
X035811Y003229D01*
X035815Y003163D01*
X035815Y003095D01*
X035811Y003029D01*
X035803Y002962D01*
X035791Y002896D01*
X035775Y002831D01*
X035756Y002767D01*
X035733Y002704D01*
X035706Y002642D01*
X035676Y002582D01*
X035642Y002524D01*
X035605Y002469D01*
X035564Y002415D01*
X035521Y002364D01*
X035475Y002316D01*
X035425Y002270D01*
X035374Y002227D01*
X035320Y002188D01*
X035263Y002151D01*
X035205Y002118D01*
X035145Y002089D01*
X035083Y002063D01*
X035020Y002041D01*
X034955Y002022D01*
X034890Y002008D01*
X034823Y001997D01*
X034757Y001990D01*
X034690Y001987D01*
X034623Y001988D01*
X034556Y001993D01*
X034489Y002002D01*
X034424Y002015D01*
X034359Y002031D01*
X034295Y002051D01*
X034232Y002076D01*
X034171Y002103D01*
X034112Y002134D01*
X034054Y002169D01*
X033999Y002207D01*
X033946Y002248D01*
X033896Y002292D01*
X033848Y002339D01*
X033803Y002389D01*
X033761Y002442D01*
X033722Y002496D01*
X033687Y002553D01*
X033655Y002612D01*
X033626Y002673D01*
X033601Y002735D01*
X033580Y002798D01*
X033562Y002863D01*
X033549Y002929D01*
X033539Y002995D01*
X033533Y003062D01*
X033531Y003129D01*
X032843Y003975D02*
X032843Y005235D01*
X033059Y005235D01*
X033059Y005452D01*
X036287Y005452D01*
X036287Y005235D01*
X036504Y005235D01*
X036504Y003975D01*
X031780Y003975D02*
X031780Y005235D01*
X031563Y005235D01*
X031563Y005452D01*
X028335Y005452D01*
X028335Y005235D01*
X028118Y005235D01*
X028118Y003975D01*
X027055Y003975D02*
X027055Y005235D01*
X026839Y005235D01*
X026839Y005452D01*
X023610Y005452D01*
X023610Y005235D01*
X023394Y005235D01*
X024299Y003129D02*
X024301Y003189D01*
X024307Y003250D01*
X024317Y003309D01*
X024331Y003368D01*
X024348Y003426D01*
X024369Y003483D01*
X024394Y003538D01*
X024423Y003591D01*
X024455Y003643D01*
X024490Y003692D01*
X024529Y003739D01*
X024570Y003783D01*
X024614Y003824D01*
X024661Y003863D01*
X024710Y003898D01*
X024761Y003930D01*
X024815Y003959D01*
X024870Y003984D01*
X024927Y004005D01*
X024985Y004022D01*
X025044Y004036D01*
X025103Y004046D01*
X025164Y004052D01*
X025224Y004054D01*
X025284Y004052D01*
X025345Y004046D01*
X025404Y004036D01*
X025463Y004022D01*
X025521Y004005D01*
X025578Y003984D01*
X025633Y003959D01*
X025686Y003930D01*
X025738Y003898D01*
X025787Y003863D01*
X025834Y003824D01*
X025878Y003783D01*
X025919Y003739D01*
X025958Y003692D01*
X025993Y003643D01*
X026025Y003592D01*
X026054Y003538D01*
X026079Y003483D01*
X026100Y003426D01*
X026117Y003368D01*
X026131Y003309D01*
X026141Y003250D01*
X026147Y003189D01*
X026149Y003129D01*
X026147Y003069D01*
X026141Y003008D01*
X026131Y002949D01*
X026117Y002890D01*
X026100Y002832D01*
X026079Y002775D01*
X026054Y002720D01*
X026025Y002667D01*
X025993Y002615D01*
X025958Y002566D01*
X025919Y002519D01*
X025878Y002475D01*
X025834Y002434D01*
X025787Y002395D01*
X025738Y002360D01*
X025687Y002328D01*
X025633Y002299D01*
X025578Y002274D01*
X025521Y002253D01*
X025463Y002236D01*
X025404Y002222D01*
X025345Y002212D01*
X025284Y002206D01*
X025224Y002204D01*
X025164Y002206D01*
X025103Y002212D01*
X025044Y002222D01*
X024985Y002236D01*
X024927Y002253D01*
X024870Y002274D01*
X024815Y002299D01*
X024762Y002328D01*
X024710Y002360D01*
X024661Y002395D01*
X024614Y002434D01*
X024570Y002475D01*
X024529Y002519D01*
X024490Y002566D01*
X024455Y002615D01*
X024423Y002666D01*
X024394Y002720D01*
X024369Y002775D01*
X024348Y002832D01*
X024331Y002890D01*
X024317Y002949D01*
X024307Y003008D01*
X024301Y003069D01*
X024299Y003129D01*
X024082Y003129D02*
X024084Y003196D01*
X024090Y003263D01*
X024100Y003329D01*
X024113Y003395D01*
X024131Y003460D01*
X024152Y003523D01*
X024177Y003585D01*
X024206Y003646D01*
X024238Y003705D01*
X024273Y003762D01*
X024312Y003816D01*
X024354Y003869D01*
X024399Y003919D01*
X024447Y003966D01*
X024497Y004010D01*
X024550Y004051D01*
X024605Y004089D01*
X024663Y004124D01*
X024722Y004155D01*
X024783Y004182D01*
X024846Y004207D01*
X024910Y004227D01*
X024975Y004243D01*
X025040Y004256D01*
X025107Y004265D01*
X025174Y004270D01*
X025241Y004271D01*
X025308Y004268D01*
X025374Y004261D01*
X025441Y004250D01*
X025506Y004236D01*
X025571Y004217D01*
X025634Y004195D01*
X025696Y004169D01*
X025756Y004140D01*
X025814Y004107D01*
X025871Y004070D01*
X025925Y004031D01*
X025976Y003988D01*
X026026Y003942D01*
X026072Y003894D01*
X026115Y003843D01*
X026156Y003789D01*
X026193Y003734D01*
X026227Y003676D01*
X026257Y003616D01*
X026284Y003554D01*
X026307Y003491D01*
X026326Y003427D01*
X026342Y003362D01*
X026354Y003296D01*
X026362Y003229D01*
X026366Y003163D01*
X026366Y003095D01*
X026362Y003029D01*
X026354Y002962D01*
X026342Y002896D01*
X026326Y002831D01*
X026307Y002767D01*
X026284Y002704D01*
X026257Y002642D01*
X026227Y002582D01*
X026193Y002524D01*
X026156Y002469D01*
X026115Y002415D01*
X026072Y002364D01*
X026026Y002316D01*
X025976Y002270D01*
X025925Y002227D01*
X025871Y002188D01*
X025814Y002151D01*
X025756Y002118D01*
X025696Y002089D01*
X025634Y002063D01*
X025571Y002041D01*
X025506Y002022D01*
X025441Y002008D01*
X025374Y001997D01*
X025308Y001990D01*
X025241Y001987D01*
X025174Y001988D01*
X025107Y001993D01*
X025040Y002002D01*
X024975Y002015D01*
X024910Y002031D01*
X024846Y002051D01*
X024783Y002076D01*
X024722Y002103D01*
X024663Y002134D01*
X024605Y002169D01*
X024550Y002207D01*
X024497Y002248D01*
X024447Y002292D01*
X024399Y002339D01*
X024354Y002389D01*
X024312Y002442D01*
X024273Y002496D01*
X024238Y002553D01*
X024206Y002612D01*
X024177Y002673D01*
X024152Y002735D01*
X024131Y002798D01*
X024113Y002863D01*
X024100Y002929D01*
X024090Y002995D01*
X024084Y003062D01*
X024082Y003129D01*
X019579Y003062D02*
X019398Y003062D01*
X019306Y003184D01*
X019217Y003062D02*
X019398Y003062D01*
X019408Y003068D02*
X019484Y003184D01*
X016823Y003062D02*
X016642Y003062D01*
X016550Y003184D01*
X016461Y003062D02*
X016642Y003062D01*
X016652Y003068D02*
X016728Y003184D01*
X014067Y003062D02*
X013886Y003062D01*
X013794Y003184D01*
X013705Y003062D02*
X013886Y003062D01*
X013896Y003068D02*
X013972Y003184D01*
X011311Y003062D02*
X011130Y003062D01*
X011038Y003184D01*
X010949Y003062D02*
X011130Y003062D01*
X011140Y003068D02*
X011216Y003184D01*
X008555Y003062D02*
X008374Y003062D01*
X008282Y003184D01*
X008193Y003062D02*
X008374Y003062D01*
X008384Y003068D02*
X008460Y003184D01*
X005894Y003719D02*
X005618Y003719D01*
X005894Y003719D02*
X005894Y004546D01*
X003768Y003719D02*
X001681Y003719D01*
X001681Y007263D01*
X005894Y007263D01*
X005894Y006436D01*
X029024Y003129D02*
X029026Y003189D01*
X029032Y003250D01*
X029042Y003309D01*
X029056Y003368D01*
X029073Y003426D01*
X029094Y003483D01*
X029119Y003538D01*
X029148Y003591D01*
X029180Y003643D01*
X029215Y003692D01*
X029254Y003739D01*
X029295Y003783D01*
X029339Y003824D01*
X029386Y003863D01*
X029435Y003898D01*
X029486Y003930D01*
X029540Y003959D01*
X029595Y003984D01*
X029652Y004005D01*
X029710Y004022D01*
X029769Y004036D01*
X029828Y004046D01*
X029889Y004052D01*
X029949Y004054D01*
X030009Y004052D01*
X030070Y004046D01*
X030129Y004036D01*
X030188Y004022D01*
X030246Y004005D01*
X030303Y003984D01*
X030358Y003959D01*
X030411Y003930D01*
X030463Y003898D01*
X030512Y003863D01*
X030559Y003824D01*
X030603Y003783D01*
X030644Y003739D01*
X030683Y003692D01*
X030718Y003643D01*
X030750Y003592D01*
X030779Y003538D01*
X030804Y003483D01*
X030825Y003426D01*
X030842Y003368D01*
X030856Y003309D01*
X030866Y003250D01*
X030872Y003189D01*
X030874Y003129D01*
X030872Y003069D01*
X030866Y003008D01*
X030856Y002949D01*
X030842Y002890D01*
X030825Y002832D01*
X030804Y002775D01*
X030779Y002720D01*
X030750Y002667D01*
X030718Y002615D01*
X030683Y002566D01*
X030644Y002519D01*
X030603Y002475D01*
X030559Y002434D01*
X030512Y002395D01*
X030463Y002360D01*
X030412Y002328D01*
X030358Y002299D01*
X030303Y002274D01*
X030246Y002253D01*
X030188Y002236D01*
X030129Y002222D01*
X030070Y002212D01*
X030009Y002206D01*
X029949Y002204D01*
X029889Y002206D01*
X029828Y002212D01*
X029769Y002222D01*
X029710Y002236D01*
X029652Y002253D01*
X029595Y002274D01*
X029540Y002299D01*
X029487Y002328D01*
X029435Y002360D01*
X029386Y002395D01*
X029339Y002434D01*
X029295Y002475D01*
X029254Y002519D01*
X029215Y002566D01*
X029180Y002615D01*
X029148Y002666D01*
X029119Y002720D01*
X029094Y002775D01*
X029073Y002832D01*
X029056Y002890D01*
X029042Y002949D01*
X029032Y003008D01*
X029026Y003069D01*
X029024Y003129D01*
X028807Y003129D02*
X028809Y003196D01*
X028815Y003263D01*
X028825Y003329D01*
X028838Y003395D01*
X028856Y003460D01*
X028877Y003523D01*
X028902Y003585D01*
X028931Y003646D01*
X028963Y003705D01*
X028998Y003762D01*
X029037Y003816D01*
X029079Y003869D01*
X029124Y003919D01*
X029172Y003966D01*
X029222Y004010D01*
X029275Y004051D01*
X029330Y004089D01*
X029388Y004124D01*
X029447Y004155D01*
X029508Y004182D01*
X029571Y004207D01*
X029635Y004227D01*
X029700Y004243D01*
X029765Y004256D01*
X029832Y004265D01*
X029899Y004270D01*
X029966Y004271D01*
X030033Y004268D01*
X030099Y004261D01*
X030166Y004250D01*
X030231Y004236D01*
X030296Y004217D01*
X030359Y004195D01*
X030421Y004169D01*
X030481Y004140D01*
X030539Y004107D01*
X030596Y004070D01*
X030650Y004031D01*
X030701Y003988D01*
X030751Y003942D01*
X030797Y003894D01*
X030840Y003843D01*
X030881Y003789D01*
X030918Y003734D01*
X030952Y003676D01*
X030982Y003616D01*
X031009Y003554D01*
X031032Y003491D01*
X031051Y003427D01*
X031067Y003362D01*
X031079Y003296D01*
X031087Y003229D01*
X031091Y003163D01*
X031091Y003095D01*
X031087Y003029D01*
X031079Y002962D01*
X031067Y002896D01*
X031051Y002831D01*
X031032Y002767D01*
X031009Y002704D01*
X030982Y002642D01*
X030952Y002582D01*
X030918Y002524D01*
X030881Y002469D01*
X030840Y002415D01*
X030797Y002364D01*
X030751Y002316D01*
X030701Y002270D01*
X030650Y002227D01*
X030596Y002188D01*
X030539Y002151D01*
X030481Y002118D01*
X030421Y002089D01*
X030359Y002063D01*
X030296Y002041D01*
X030231Y002022D01*
X030166Y002008D01*
X030099Y001997D01*
X030033Y001990D01*
X029966Y001987D01*
X029899Y001988D01*
X029832Y001993D01*
X029765Y002002D01*
X029700Y002015D01*
X029635Y002031D01*
X029571Y002051D01*
X029508Y002076D01*
X029447Y002103D01*
X029388Y002134D01*
X029330Y002169D01*
X029275Y002207D01*
X029222Y002248D01*
X029172Y002292D01*
X029124Y002339D01*
X029079Y002389D01*
X029037Y002442D01*
X028998Y002496D01*
X028963Y002553D01*
X028931Y002612D01*
X028902Y002673D01*
X028877Y002735D01*
X028856Y002798D01*
X028838Y002863D01*
X028825Y002929D01*
X028815Y002995D01*
X028809Y003062D01*
X028807Y003129D01*
D14*
X028709Y001436D02*
X028711Y001467D01*
X028717Y001498D01*
X028726Y001528D01*
X028739Y001557D01*
X028756Y001584D01*
X028776Y001608D01*
X028798Y001630D01*
X028824Y001649D01*
X028851Y001665D01*
X028880Y001677D01*
X028910Y001686D01*
X028941Y001691D01*
X028973Y001692D01*
X029004Y001689D01*
X029035Y001682D01*
X029065Y001672D01*
X029093Y001658D01*
X029119Y001640D01*
X029143Y001620D01*
X029164Y001596D01*
X029183Y001571D01*
X029198Y001543D01*
X029209Y001514D01*
X029217Y001483D01*
X029221Y001452D01*
X029221Y001420D01*
X029217Y001389D01*
X029209Y001358D01*
X029198Y001329D01*
X029183Y001301D01*
X029164Y001276D01*
X029143Y001252D01*
X029119Y001232D01*
X029093Y001214D01*
X029065Y001200D01*
X029035Y001190D01*
X029004Y001183D01*
X028973Y001180D01*
X028941Y001181D01*
X028910Y001186D01*
X028880Y001195D01*
X028851Y001207D01*
X028824Y001223D01*
X028798Y001242D01*
X028776Y001264D01*
X028756Y001288D01*
X028739Y001315D01*
X028726Y001344D01*
X028717Y001374D01*
X028711Y001405D01*
X028709Y001436D01*
X030677Y001436D02*
X030679Y001467D01*
X030685Y001498D01*
X030694Y001528D01*
X030707Y001557D01*
X030724Y001584D01*
X030744Y001608D01*
X030766Y001630D01*
X030792Y001649D01*
X030819Y001665D01*
X030848Y001677D01*
X030878Y001686D01*
X030909Y001691D01*
X030941Y001692D01*
X030972Y001689D01*
X031003Y001682D01*
X031033Y001672D01*
X031061Y001658D01*
X031087Y001640D01*
X031111Y001620D01*
X031132Y001596D01*
X031151Y001571D01*
X031166Y001543D01*
X031177Y001514D01*
X031185Y001483D01*
X031189Y001452D01*
X031189Y001420D01*
X031185Y001389D01*
X031177Y001358D01*
X031166Y001329D01*
X031151Y001301D01*
X031132Y001276D01*
X031111Y001252D01*
X031087Y001232D01*
X031061Y001214D01*
X031033Y001200D01*
X031003Y001190D01*
X030972Y001183D01*
X030941Y001180D01*
X030909Y001181D01*
X030878Y001186D01*
X030848Y001195D01*
X030819Y001207D01*
X030792Y001223D01*
X030766Y001242D01*
X030744Y001264D01*
X030724Y001288D01*
X030707Y001315D01*
X030694Y001344D01*
X030685Y001374D01*
X030679Y001405D01*
X030677Y001436D01*
X033433Y001436D02*
X033435Y001467D01*
X033441Y001498D01*
X033450Y001528D01*
X033463Y001557D01*
X033480Y001584D01*
X033500Y001608D01*
X033522Y001630D01*
X033548Y001649D01*
X033575Y001665D01*
X033604Y001677D01*
X033634Y001686D01*
X033665Y001691D01*
X033697Y001692D01*
X033728Y001689D01*
X033759Y001682D01*
X033789Y001672D01*
X033817Y001658D01*
X033843Y001640D01*
X033867Y001620D01*
X033888Y001596D01*
X033907Y001571D01*
X033922Y001543D01*
X033933Y001514D01*
X033941Y001483D01*
X033945Y001452D01*
X033945Y001420D01*
X033941Y001389D01*
X033933Y001358D01*
X033922Y001329D01*
X033907Y001301D01*
X033888Y001276D01*
X033867Y001252D01*
X033843Y001232D01*
X033817Y001214D01*
X033789Y001200D01*
X033759Y001190D01*
X033728Y001183D01*
X033697Y001180D01*
X033665Y001181D01*
X033634Y001186D01*
X033604Y001195D01*
X033575Y001207D01*
X033548Y001223D01*
X033522Y001242D01*
X033500Y001264D01*
X033480Y001288D01*
X033463Y001315D01*
X033450Y001344D01*
X033441Y001374D01*
X033435Y001405D01*
X033433Y001436D01*
X035401Y001436D02*
X035403Y001467D01*
X035409Y001498D01*
X035418Y001528D01*
X035431Y001557D01*
X035448Y001584D01*
X035468Y001608D01*
X035490Y001630D01*
X035516Y001649D01*
X035543Y001665D01*
X035572Y001677D01*
X035602Y001686D01*
X035633Y001691D01*
X035665Y001692D01*
X035696Y001689D01*
X035727Y001682D01*
X035757Y001672D01*
X035785Y001658D01*
X035811Y001640D01*
X035835Y001620D01*
X035856Y001596D01*
X035875Y001571D01*
X035890Y001543D01*
X035901Y001514D01*
X035909Y001483D01*
X035913Y001452D01*
X035913Y001420D01*
X035909Y001389D01*
X035901Y001358D01*
X035890Y001329D01*
X035875Y001301D01*
X035856Y001276D01*
X035835Y001252D01*
X035811Y001232D01*
X035785Y001214D01*
X035757Y001200D01*
X035727Y001190D01*
X035696Y001183D01*
X035665Y001180D01*
X035633Y001181D01*
X035602Y001186D01*
X035572Y001195D01*
X035543Y001207D01*
X035516Y001223D01*
X035490Y001242D01*
X035468Y001264D01*
X035448Y001288D01*
X035431Y001315D01*
X035418Y001344D01*
X035409Y001374D01*
X035403Y001405D01*
X035401Y001436D01*
X035401Y004940D02*
X035403Y004971D01*
X035409Y005002D01*
X035418Y005032D01*
X035431Y005061D01*
X035448Y005088D01*
X035468Y005112D01*
X035490Y005134D01*
X035516Y005153D01*
X035543Y005169D01*
X035572Y005181D01*
X035602Y005190D01*
X035633Y005195D01*
X035665Y005196D01*
X035696Y005193D01*
X035727Y005186D01*
X035757Y005176D01*
X035785Y005162D01*
X035811Y005144D01*
X035835Y005124D01*
X035856Y005100D01*
X035875Y005075D01*
X035890Y005047D01*
X035901Y005018D01*
X035909Y004987D01*
X035913Y004956D01*
X035913Y004924D01*
X035909Y004893D01*
X035901Y004862D01*
X035890Y004833D01*
X035875Y004805D01*
X035856Y004780D01*
X035835Y004756D01*
X035811Y004736D01*
X035785Y004718D01*
X035757Y004704D01*
X035727Y004694D01*
X035696Y004687D01*
X035665Y004684D01*
X035633Y004685D01*
X035602Y004690D01*
X035572Y004699D01*
X035543Y004711D01*
X035516Y004727D01*
X035490Y004746D01*
X035468Y004768D01*
X035448Y004792D01*
X035431Y004819D01*
X035418Y004848D01*
X035409Y004878D01*
X035403Y004909D01*
X035401Y004940D01*
X033433Y004940D02*
X033435Y004971D01*
X033441Y005002D01*
X033450Y005032D01*
X033463Y005061D01*
X033480Y005088D01*
X033500Y005112D01*
X033522Y005134D01*
X033548Y005153D01*
X033575Y005169D01*
X033604Y005181D01*
X033634Y005190D01*
X033665Y005195D01*
X033697Y005196D01*
X033728Y005193D01*
X033759Y005186D01*
X033789Y005176D01*
X033817Y005162D01*
X033843Y005144D01*
X033867Y005124D01*
X033888Y005100D01*
X033907Y005075D01*
X033922Y005047D01*
X033933Y005018D01*
X033941Y004987D01*
X033945Y004956D01*
X033945Y004924D01*
X033941Y004893D01*
X033933Y004862D01*
X033922Y004833D01*
X033907Y004805D01*
X033888Y004780D01*
X033867Y004756D01*
X033843Y004736D01*
X033817Y004718D01*
X033789Y004704D01*
X033759Y004694D01*
X033728Y004687D01*
X033697Y004684D01*
X033665Y004685D01*
X033634Y004690D01*
X033604Y004699D01*
X033575Y004711D01*
X033548Y004727D01*
X033522Y004746D01*
X033500Y004768D01*
X033480Y004792D01*
X033463Y004819D01*
X033450Y004848D01*
X033441Y004878D01*
X033435Y004909D01*
X033433Y004940D01*
X030677Y004940D02*
X030679Y004971D01*
X030685Y005002D01*
X030694Y005032D01*
X030707Y005061D01*
X030724Y005088D01*
X030744Y005112D01*
X030766Y005134D01*
X030792Y005153D01*
X030819Y005169D01*
X030848Y005181D01*
X030878Y005190D01*
X030909Y005195D01*
X030941Y005196D01*
X030972Y005193D01*
X031003Y005186D01*
X031033Y005176D01*
X031061Y005162D01*
X031087Y005144D01*
X031111Y005124D01*
X031132Y005100D01*
X031151Y005075D01*
X031166Y005047D01*
X031177Y005018D01*
X031185Y004987D01*
X031189Y004956D01*
X031189Y004924D01*
X031185Y004893D01*
X031177Y004862D01*
X031166Y004833D01*
X031151Y004805D01*
X031132Y004780D01*
X031111Y004756D01*
X031087Y004736D01*
X031061Y004718D01*
X031033Y004704D01*
X031003Y004694D01*
X030972Y004687D01*
X030941Y004684D01*
X030909Y004685D01*
X030878Y004690D01*
X030848Y004699D01*
X030819Y004711D01*
X030792Y004727D01*
X030766Y004746D01*
X030744Y004768D01*
X030724Y004792D01*
X030707Y004819D01*
X030694Y004848D01*
X030685Y004878D01*
X030679Y004909D01*
X030677Y004940D01*
X028709Y004940D02*
X028711Y004971D01*
X028717Y005002D01*
X028726Y005032D01*
X028739Y005061D01*
X028756Y005088D01*
X028776Y005112D01*
X028798Y005134D01*
X028824Y005153D01*
X028851Y005169D01*
X028880Y005181D01*
X028910Y005190D01*
X028941Y005195D01*
X028973Y005196D01*
X029004Y005193D01*
X029035Y005186D01*
X029065Y005176D01*
X029093Y005162D01*
X029119Y005144D01*
X029143Y005124D01*
X029164Y005100D01*
X029183Y005075D01*
X029198Y005047D01*
X029209Y005018D01*
X029217Y004987D01*
X029221Y004956D01*
X029221Y004924D01*
X029217Y004893D01*
X029209Y004862D01*
X029198Y004833D01*
X029183Y004805D01*
X029164Y004780D01*
X029143Y004756D01*
X029119Y004736D01*
X029093Y004718D01*
X029065Y004704D01*
X029035Y004694D01*
X029004Y004687D01*
X028973Y004684D01*
X028941Y004685D01*
X028910Y004690D01*
X028880Y004699D01*
X028851Y004711D01*
X028824Y004727D01*
X028798Y004746D01*
X028776Y004768D01*
X028756Y004792D01*
X028739Y004819D01*
X028726Y004848D01*
X028717Y004878D01*
X028711Y004909D01*
X028709Y004940D01*
X025953Y004940D02*
X025955Y004971D01*
X025961Y005002D01*
X025970Y005032D01*
X025983Y005061D01*
X026000Y005088D01*
X026020Y005112D01*
X026042Y005134D01*
X026068Y005153D01*
X026095Y005169D01*
X026124Y005181D01*
X026154Y005190D01*
X026185Y005195D01*
X026217Y005196D01*
X026248Y005193D01*
X026279Y005186D01*
X026309Y005176D01*
X026337Y005162D01*
X026363Y005144D01*
X026387Y005124D01*
X026408Y005100D01*
X026427Y005075D01*
X026442Y005047D01*
X026453Y005018D01*
X026461Y004987D01*
X026465Y004956D01*
X026465Y004924D01*
X026461Y004893D01*
X026453Y004862D01*
X026442Y004833D01*
X026427Y004805D01*
X026408Y004780D01*
X026387Y004756D01*
X026363Y004736D01*
X026337Y004718D01*
X026309Y004704D01*
X026279Y004694D01*
X026248Y004687D01*
X026217Y004684D01*
X026185Y004685D01*
X026154Y004690D01*
X026124Y004699D01*
X026095Y004711D01*
X026068Y004727D01*
X026042Y004746D01*
X026020Y004768D01*
X026000Y004792D01*
X025983Y004819D01*
X025970Y004848D01*
X025961Y004878D01*
X025955Y004909D01*
X025953Y004940D01*
X023984Y004940D02*
X023986Y004971D01*
X023992Y005002D01*
X024001Y005032D01*
X024014Y005061D01*
X024031Y005088D01*
X024051Y005112D01*
X024073Y005134D01*
X024099Y005153D01*
X024126Y005169D01*
X024155Y005181D01*
X024185Y005190D01*
X024216Y005195D01*
X024248Y005196D01*
X024279Y005193D01*
X024310Y005186D01*
X024340Y005176D01*
X024368Y005162D01*
X024394Y005144D01*
X024418Y005124D01*
X024439Y005100D01*
X024458Y005075D01*
X024473Y005047D01*
X024484Y005018D01*
X024492Y004987D01*
X024496Y004956D01*
X024496Y004924D01*
X024492Y004893D01*
X024484Y004862D01*
X024473Y004833D01*
X024458Y004805D01*
X024439Y004780D01*
X024418Y004756D01*
X024394Y004736D01*
X024368Y004718D01*
X024340Y004704D01*
X024310Y004694D01*
X024279Y004687D01*
X024248Y004684D01*
X024216Y004685D01*
X024185Y004690D01*
X024155Y004699D01*
X024126Y004711D01*
X024099Y004727D01*
X024073Y004746D01*
X024051Y004768D01*
X024031Y004792D01*
X024014Y004819D01*
X024001Y004848D01*
X023992Y004878D01*
X023986Y004909D01*
X023984Y004940D01*
X023984Y001436D02*
X023986Y001467D01*
X023992Y001498D01*
X024001Y001528D01*
X024014Y001557D01*
X024031Y001584D01*
X024051Y001608D01*
X024073Y001630D01*
X024099Y001649D01*
X024126Y001665D01*
X024155Y001677D01*
X024185Y001686D01*
X024216Y001691D01*
X024248Y001692D01*
X024279Y001689D01*
X024310Y001682D01*
X024340Y001672D01*
X024368Y001658D01*
X024394Y001640D01*
X024418Y001620D01*
X024439Y001596D01*
X024458Y001571D01*
X024473Y001543D01*
X024484Y001514D01*
X024492Y001483D01*
X024496Y001452D01*
X024496Y001420D01*
X024492Y001389D01*
X024484Y001358D01*
X024473Y001329D01*
X024458Y001301D01*
X024439Y001276D01*
X024418Y001252D01*
X024394Y001232D01*
X024368Y001214D01*
X024340Y001200D01*
X024310Y001190D01*
X024279Y001183D01*
X024248Y001180D01*
X024216Y001181D01*
X024185Y001186D01*
X024155Y001195D01*
X024126Y001207D01*
X024099Y001223D01*
X024073Y001242D01*
X024051Y001264D01*
X024031Y001288D01*
X024014Y001315D01*
X024001Y001344D01*
X023992Y001374D01*
X023986Y001405D01*
X023984Y001436D01*
X025953Y001436D02*
X025955Y001467D01*
X025961Y001498D01*
X025970Y001528D01*
X025983Y001557D01*
X026000Y001584D01*
X026020Y001608D01*
X026042Y001630D01*
X026068Y001649D01*
X026095Y001665D01*
X026124Y001677D01*
X026154Y001686D01*
X026185Y001691D01*
X026217Y001692D01*
X026248Y001689D01*
X026279Y001682D01*
X026309Y001672D01*
X026337Y001658D01*
X026363Y001640D01*
X026387Y001620D01*
X026408Y001596D01*
X026427Y001571D01*
X026442Y001543D01*
X026453Y001514D01*
X026461Y001483D01*
X026465Y001452D01*
X026465Y001420D01*
X026461Y001389D01*
X026453Y001358D01*
X026442Y001329D01*
X026427Y001301D01*
X026408Y001276D01*
X026387Y001252D01*
X026363Y001232D01*
X026337Y001214D01*
X026309Y001200D01*
X026279Y001190D01*
X026248Y001183D01*
X026217Y001180D01*
X026185Y001181D01*
X026154Y001186D01*
X026124Y001195D01*
X026095Y001207D01*
X026068Y001223D01*
X026042Y001242D01*
X026020Y001264D01*
X026000Y001288D01*
X025983Y001315D01*
X025970Y001344D01*
X025961Y001374D01*
X025955Y001405D01*
X025953Y001436D01*
M02*
