G75*
G70*
%OFA0B0*%
%FSLAX24Y24*%
%IPPOS*%
%LPD*%
%AMOC8*
5,1,8,0,0,1.08239X$1,22.5*
%
%ADD10C,0.0100*%
%ADD11C,0.0060*%
%ADD12OC8,0.0680*%
%ADD13C,0.1660*%
%ADD14R,0.0395X0.0395*%
%ADD15R,0.0513X0.0474*%
%ADD16C,0.0680*%
%ADD17C,0.0740*%
%ADD18R,0.1182X0.1182*%
%ADD19C,0.2580*%
D10*
X001681Y002341D02*
X001681Y010964D01*
X037193Y010964D01*
X037193Y002341D01*
X001681Y002341D01*
D11*
X011002Y010012D02*
X011124Y009891D01*
X011245Y009891D01*
X011366Y010012D01*
X011366Y010619D01*
X011245Y010619D02*
X011488Y010619D01*
X011849Y010377D02*
X012091Y010377D01*
X012213Y010255D01*
X012213Y009891D01*
X011849Y009891D01*
X011727Y010012D01*
X011849Y010134D01*
X012213Y010134D01*
X012452Y010012D02*
X012574Y010134D01*
X012938Y010134D01*
X012938Y010255D02*
X012938Y009891D01*
X012574Y009891D01*
X012452Y010012D01*
X012817Y010377D02*
X012938Y010255D01*
X012817Y010377D02*
X012574Y010377D01*
X013178Y010377D02*
X013178Y009891D01*
X013663Y009891D02*
X013663Y010255D01*
X013542Y010377D01*
X013178Y010377D01*
X013903Y010377D02*
X013903Y010012D01*
X014024Y009891D01*
X014388Y009891D01*
X014388Y010377D01*
X014628Y010255D02*
X014749Y010377D01*
X015113Y010377D01*
X014992Y010134D02*
X014749Y010134D01*
X014628Y010255D01*
X014628Y009891D02*
X014992Y009891D01*
X015113Y010012D01*
X014992Y010134D01*
X016078Y009891D02*
X016563Y010377D01*
X016563Y010498D01*
X016442Y010619D01*
X016199Y010619D01*
X016078Y010498D01*
X016078Y009891D02*
X016563Y009891D01*
X016803Y010012D02*
X017288Y010498D01*
X017288Y010012D01*
X017167Y009891D01*
X016924Y009891D01*
X016803Y010012D01*
X016803Y010498D01*
X016924Y010619D01*
X017167Y010619D01*
X017288Y010498D01*
X017528Y010377D02*
X017770Y010619D01*
X017770Y009891D01*
X017528Y009891D02*
X018013Y009891D01*
X018253Y010012D02*
X018374Y009891D01*
X018617Y009891D01*
X018738Y010012D01*
X018738Y010134D01*
X018617Y010255D01*
X018495Y010255D01*
X018617Y010255D02*
X018738Y010377D01*
X018738Y010498D01*
X018617Y010619D01*
X018374Y010619D01*
X018253Y010498D01*
D12*
X018181Y008960D03*
X017181Y008960D03*
X016181Y008960D03*
X015181Y008960D03*
X014181Y008960D03*
X013181Y008960D03*
X012181Y008960D03*
X011181Y008960D03*
X010181Y008960D03*
X009181Y008960D03*
X008181Y008960D03*
X007181Y008960D03*
X007181Y007960D03*
X008181Y007960D03*
X009181Y007960D03*
X010181Y007960D03*
X011181Y007960D03*
X012181Y007960D03*
X013181Y007960D03*
X014181Y007960D03*
X015181Y007960D03*
X016181Y007960D03*
X017181Y007960D03*
X018181Y007960D03*
X019181Y007960D03*
X020181Y007960D03*
X021181Y007960D03*
X022181Y007960D03*
X023181Y007960D03*
X024181Y007960D03*
X025181Y007960D03*
X026181Y007960D03*
X027181Y007960D03*
X028181Y007960D03*
X029181Y007960D03*
X030181Y007960D03*
X031181Y007960D03*
X032181Y007960D03*
X032181Y006960D03*
X032181Y008960D03*
X031181Y008960D03*
X030181Y008960D03*
X029181Y008960D03*
X028181Y008960D03*
X027181Y008960D03*
X026181Y008960D03*
X025181Y008960D03*
X024181Y008960D03*
X023181Y008960D03*
X022181Y008960D03*
X021181Y008960D03*
X020181Y008960D03*
X019181Y008960D03*
D13*
X005894Y005491D03*
X004713Y003641D03*
X003531Y005491D03*
D14*
X008374Y003424D03*
X008374Y002834D03*
X011130Y002834D03*
X011130Y003424D03*
X013886Y003424D03*
X013886Y002834D03*
X016642Y002834D03*
X016642Y003424D03*
X019398Y003424D03*
X019398Y002834D03*
X022154Y002834D03*
X022154Y003424D03*
D15*
X022154Y003975D03*
X022154Y004645D03*
X019398Y004645D03*
X019398Y003975D03*
X016642Y003975D03*
X016642Y004645D03*
X013886Y004645D03*
X013886Y003975D03*
X011130Y003975D03*
X011130Y004645D03*
X008374Y004645D03*
X008374Y003975D03*
D16*
X025181Y009915D02*
X025181Y010515D01*
X026181Y010515D02*
X026181Y009915D01*
X027181Y009915D02*
X027181Y010515D01*
X028181Y010515D02*
X028181Y009915D01*
D17*
X028965Y005885D03*
X029949Y005885D03*
X030933Y005885D03*
X033689Y005885D03*
X034673Y005885D03*
X035657Y005885D03*
X026209Y005885D03*
X025224Y005885D03*
X024240Y005885D03*
D18*
X023453Y003129D03*
X026996Y003129D03*
X028177Y003129D03*
X031720Y003129D03*
X032902Y003129D03*
X036445Y003129D03*
D19*
X034181Y008960D03*
X005181Y008960D03*
M02*
